<svg xmlns="http://www.w3.org/2000/svg" viewBox="0 0 1920.121 1200.411"><defs><style>.a{fill:#1a1a1a;}.b{fill:#161616;}</style></defs><g transform="translate(0 -2126)"><rect class="a" width="1920" height="1200" transform="translate(0 2126)"/><path class="b" d="M-581.52,1305.725l20.712-5.5,4.839-29.247-35.153-22.055a31.491,31.491,0,0,1-14.716-24.746,230.811,230.811,0,0,0-5.789-38.633,31.546,31.546,0,0,1-.844-7.278,31.556,31.556,0,0,1,7.282-20.131l28.911-34.7q-5.459-12.533-11.867-24.069l-44.116,3.308-.432.029q-.936.055-1.87.055a31.575,31.575,0,0,1-22.315-9.237l-31.28-31.28a31.555,31.555,0,0,1-9.231-22.258q0-1.173.084-2.352L-694,993.514q-11.524-6.4-24.069-11.867l-34.7,28.91-.1.086-.088.072-.281.227-.007.005-.234.185-.061.047-.176.136-.024.018-.117.089-.012.009-.127.1-.244.181-.2.146-.151.108q-.37.264-.745.516l-.214.143h0l-.054.036-.018.012a31.57,31.57,0,0,1-24.555,4.326,231.621,231.621,0,0,0-38.676-5.786,31.539,31.539,0,0,1-24.7-14.715l-22.994-36.655q-14.129,1.667-27.867,4.634l-11.465,43.18a31.6,31.6,0,0,1-18.414,21.026,235.468,235.468,0,0,0-35.3,18.5,31.361,31.361,0,0,1-28.53,2.556l-40.8-16.411-20.991,20.992,16.405,40.8a31.462,31.462,0,0,1,2.279,11.812,31.5,31.5,0,0,1-4.834,16.717,235.076,235.076,0,0,0-18.5,35.3,31.8,31.8,0,0,1-21.026,18.413l-43.177,11.463q-2.985,13.755-4.633,27.867l36.654,22.994a31.49,31.49,0,0,1,14.716,24.745,230.892,230.892,0,0,0,5.789,38.633q.314,1.331.51,2.673h-68.358l3.258-3.912c-1.022-5.676-1.891-11.374-2.576-17.043l-18.68-11.715v-140.59l45.842-12.161c2.613-5.352,5.419-10.726,8.485-16.142l-18.383-45.659a31.448,31.448,0,0,1-2.271-11.709,31.507,31.507,0,0,1,9.231-22.312l50.425-50.425a31.527,31.527,0,0,1,34.021-6.968l45.659,18.383c5.419-3.069,10.79-5.872,16.142-8.484l12.388-46.67a31.521,31.521,0,0,1,21.883-22.234A355.681,355.681,0,0,1-851.8,895.36,31.555,31.555,0,0,1-823.379,910.1l24.939,39.753q8.509,1.023,17.024,2.556l37.447-31.182a31.5,31.5,0,0,1,31-5.371,340.03,340.03,0,0,1,69.045,34.329,31.562,31.562,0,0,1,14.269,26.441q0,1.132-.085,2.271l-3.665,49,10.876,10.876,49-3.664a31.551,31.551,0,0,1,28.073,13.257l0,0q.271.383.53.775l.1.155a339.94,339.94,0,0,1,34.33,69.045,31.454,31.454,0,0,1,1.925,10.892,31.5,31.5,0,0,1-7.3,20.105l-31.183,37.448c1.022,5.677,1.887,11.378,2.576,17.043l39.73,24.918a31.514,31.514,0,0,1,14.781,26.718,31.544,31.544,0,0,1-.424,5.13l-7.472,45.127Zm-190.081,0a94.305,94.305,0,0,0,25.374-64.479,94.313,94.313,0,0,0-27.639-66.826,94.4,94.4,0,0,0-83.466-26.212,94.114,94.114,0,0,0-28.685,10.082q-.949.519-1.887,1.06a94.618,94.618,0,0,0-19.615,15.071,94.209,94.209,0,0,0-27.68,66.825,94.2,94.2,0,0,0,25.412,64.478h-74.66a157.667,157.667,0,0,1-13.755-64.478,157.017,157.017,0,0,1,46.133-111.376,158.89,158.89,0,0,1,18.453-15.8,157.166,157.166,0,0,1,82.1-29.891,157.322,157.322,0,0,1,122.2,45.688,157.019,157.019,0,0,1,46.134,111.377,157.665,157.665,0,0,1-13.755,64.478Z" transform="translate(768.043 3431.726) rotate(180)"/><path class="b" d="M-581.52,1305.725l20.712-5.5,4.839-29.247-35.153-22.055a31.491,31.491,0,0,1-14.716-24.746,230.811,230.811,0,0,0-5.789-38.633,31.546,31.546,0,0,1-.844-7.278,31.556,31.556,0,0,1,7.282-20.131l28.911-34.7q-5.459-12.533-11.867-24.069l-44.116,3.308-.432.029q-.936.055-1.87.055a31.575,31.575,0,0,1-22.315-9.237l-31.28-31.28a31.555,31.555,0,0,1-9.231-22.258q0-1.173.084-2.352L-694,993.514q-11.524-6.4-24.069-11.867l-34.7,28.91-.1.086-.088.072-.281.227-.007.005-.234.185-.061.047-.176.136-.024.018-.117.089-.012.009-.127.1-.244.181-.2.146-.151.108q-.37.264-.745.516l-.214.143h0l-.054.036-.018.012a31.57,31.57,0,0,1-24.555,4.326,231.621,231.621,0,0,0-38.676-5.786,31.539,31.539,0,0,1-24.7-14.715l-22.994-36.655q-14.129,1.667-27.867,4.634l-11.465,43.18a31.6,31.6,0,0,1-18.414,21.026,235.468,235.468,0,0,0-35.3,18.5,31.361,31.361,0,0,1-28.53,2.556l-40.8-16.411-20.991,20.992,16.405,40.8a31.462,31.462,0,0,1,2.279,11.812,31.5,31.5,0,0,1-4.834,16.717,235.076,235.076,0,0,0-18.5,35.3,31.8,31.8,0,0,1-21.026,18.413l-43.177,11.463q-2.985,13.755-4.633,27.867l36.654,22.994a31.49,31.49,0,0,1,14.716,24.745,230.892,230.892,0,0,0,5.789,38.633q.314,1.331.51,2.673h-68.358l3.258-3.912c-1.022-5.676-1.891-11.374-2.576-17.043l-18.68-11.715v-140.59l45.842-12.161c2.613-5.352,5.419-10.726,8.485-16.142l-18.383-45.659a31.448,31.448,0,0,1-2.271-11.709,31.507,31.507,0,0,1,9.231-22.312l50.425-50.425a31.527,31.527,0,0,1,34.021-6.968l45.659,18.383c5.419-3.069,10.79-5.872,16.142-8.484l12.388-46.67a31.521,31.521,0,0,1,21.883-22.234A355.681,355.681,0,0,1-851.8,895.36,31.555,31.555,0,0,1-823.379,910.1l24.939,39.753q8.509,1.023,17.024,2.556l37.447-31.182a31.5,31.5,0,0,1,31-5.371,340.03,340.03,0,0,1,69.045,34.329,31.562,31.562,0,0,1,14.269,26.441q0,1.132-.085,2.271l-3.665,49,10.876,10.876,49-3.664a31.551,31.551,0,0,1,28.073,13.257l0,0q.271.383.53.775l.1.155a339.94,339.94,0,0,1,34.33,69.045,31.454,31.454,0,0,1,1.925,10.892,31.5,31.5,0,0,1-7.3,20.105l-31.183,37.448c1.022,5.677,1.887,11.378,2.576,17.043l39.73,24.918a31.514,31.514,0,0,1,14.781,26.718,31.544,31.544,0,0,1-.424,5.13l-7.472,45.127Zm-190.081,0a94.305,94.305,0,0,0,25.374-64.479,94.313,94.313,0,0,0-27.639-66.826,94.4,94.4,0,0,0-83.466-26.212,94.114,94.114,0,0,0-28.685,10.082q-.949.519-1.887,1.06a94.618,94.618,0,0,0-19.615,15.071,94.209,94.209,0,0,0-27.68,66.825,94.2,94.2,0,0,0,25.412,64.478h-74.66a157.667,157.667,0,0,1-13.755-64.478,157.017,157.017,0,0,1,46.133-111.376,158.89,158.89,0,0,1,18.453-15.8,157.166,157.166,0,0,1,82.1-29.891,157.322,157.322,0,0,1,122.2,45.688,157.019,157.019,0,0,1,46.134,111.377,157.665,157.665,0,0,1-13.755,64.478Z" transform="translate(1152.077 2020.686)"/></g></svg>