<svg xmlns="http://www.w3.org/2000/svg" xmlns:xlink="http://www.w3.org/1999/xlink" viewBox="0 0 1410 764.151"><defs><style>.a,.g,.h,.r{fill:none;}.b{fill:#5bff61;}.c{clip-path:url(#a);}.d{clip-path:url(#b);}.e{fill:url(#c);}.f{opacity:0.4;}.g{stroke-linecap:round;stroke-linejoin:round;}.h{stroke:#0089cf;stroke-width:20px;}.i{fill:#0f2437;}.j{fill:#cb7456;}.k,.q{fill:#160204;}.l{fill:#e18a64;}.m{fill:#fff5e5;}.n{fill:#f60c5b;}.o{fill:#2667ea;}.p{fill:#283032;}.q{opacity:0.2;}.r{stroke:#002131;stroke-width:10px;}.s,.t,.u{stroke:none;}.t{fill:#002131;}.u{fill:#0089cf;}</style><clipPath id="a"><rect class="a" width="1410" height="764.151" transform="translate(136 2927)"/></clipPath><clipPath id="b"><path class="b" d="M1148.07,71.944c-3.868,32.868-31,58.894-37.433,91.357a88.583,88.583,0,0,0-1.518,12.9c-.925,18.643,2.766,37.672.864,56.346-3.545,35.019-24.83,62.388-51.854,86.105-20.442,17.895-44.171,33.637-66,48.871-55.567,38.817-107.681,87.821-130.505,151.644-15.212,42.559-16.378,88.808-27.544,132.605s-36.6,88.612-79.587,102.576c-46.13,14.994-96.971-10-144.449-.125-50.95,10.606-87.083,58.759-137.358,72.359-63.874,17.282-127.531-25.184-193.1-34.035-31.485-4.253-63.531-.644-95.182-3.375a239.238,239.238,0,0,1-99.821-31.724c-10.4-6.1-20.91-13.6-25.746-24.685-4.159-9.576-3.524-20.494-2.25-30.861,4.782-38.472,16.887-80.293-2.152-114.107C36.88,556.6-5.679,534.291.633,499.073c3.806-21.192,24.6-34.427,43.963-43.92,39.845-19.58,82.29-34.905,117.9-61.349,25.476-18.946,47.415-45.376,56.774-75.1a100.136,100.136,0,0,0,4.627-36.829c-1.311-19.652-8.111-41.717,3.744-57.449,5.136-6.821,13.008-11.012,20.92-14.214,29.842-12.061,62.991-12.759,94.018-21.327a129.7,129.7,0,0,0,30.413-12.7c18.925-10.96,34.157-27.107,37.832-48.185,2.152-12.352.239-25.838,6.4-36.756,10.4-18.508,30.955-26.245,53.913-28.761,28.418-3.119,60.6,1.757,82.144,4.159l2.152.229c27.67,2.88,55.11-3.245,82.07-12.478,29.112-9.888,57.574-23.346,85.263-32.91q3.9-1.352,7.777-2.589A398.252,398.252,0,0,1,792.439,4.5a404.606,404.606,0,0,1,89.432-3.434,396.7,396.7,0,0,1,45.106,5.865Q933.549,8.173,940.1,9.6c25.393,5.439,50.649,12.082,76.55,12.478h5.595c30.893-.53,62.482-8.381,91.793,1.1,13.382,4.336,26.11,12.863,31.474,25.8a46.153,46.153,0,0,1,2.56,22.968Z" transform="matrix(0.866, 0.5, -0.5, 0.866, 415.338, 0)"/></clipPath><radialGradient id="c" cx="0.5" cy="0.5" r="0.5" gradientUnits="objectBoundingBox"><stop offset="0" stop-color="#05f"/><stop offset="1" stop-color="#3f35de" stop-opacity="0.902"/></radialGradient></defs><g class="c" transform="translate(-136 -2927)"><g class="d" transform="translate(137.402 2652.248)"><path class="e" d="M1148.07,71.944c-3.868,32.868-31,58.894-37.433,91.357a88.583,88.583,0,0,0-1.518,12.9c-.925,18.643,2.766,37.672.864,56.346-3.545,35.019-24.83,62.388-51.854,86.105-20.442,17.895-44.171,33.637-66,48.871-55.567,38.817-107.681,87.821-130.505,151.644-15.212,42.559-16.378,88.808-27.544,132.605s-36.6,88.612-79.587,102.576c-46.13,14.994-96.971-10-144.449-.125-50.95,10.606-87.083,58.759-137.358,72.359-63.874,17.282-127.531-25.184-193.1-34.035-31.485-4.253-63.531-.644-95.182-3.375a239.238,239.238,0,0,1-99.821-31.724c-10.4-6.1-20.91-13.6-25.746-24.685-4.159-9.576-3.524-20.494-2.25-30.861,4.782-38.472,16.887-80.293-2.152-114.107C36.88,556.6-5.679,534.291.633,499.073c3.806-21.192,24.6-34.427,43.963-43.92,39.845-19.58,82.29-34.905,117.9-61.349,25.476-18.946,47.415-45.376,56.774-75.1a100.136,100.136,0,0,0,4.627-36.829c-1.311-19.652-8.111-41.717,3.744-57.449,5.136-6.821,13.008-11.012,20.92-14.214,29.842-12.061,62.991-12.759,94.018-21.327a129.7,129.7,0,0,0,30.413-12.7c18.925-10.96,34.157-27.107,37.832-48.185,2.152-12.352.239-25.838,6.4-36.756,10.4-18.508,30.955-26.245,53.913-28.761,28.418-3.119,60.6,1.757,82.144,4.159l2.152.229c27.67,2.88,55.11-3.245,82.07-12.478,29.112-9.888,57.574-23.346,85.263-32.91q3.9-1.352,7.777-2.589A398.252,398.252,0,0,1,792.439,4.5a404.606,404.606,0,0,1,89.432-3.434,396.7,396.7,0,0,1,45.106,5.865Q933.549,8.173,940.1,9.6c25.393,5.439,50.649,12.082,76.55,12.478h5.595c30.893-.53,62.482-8.381,91.793,1.1,13.382,4.336,26.11,12.863,31.474,25.8a46.153,46.153,0,0,1,2.56,22.968Z" transform="matrix(0.866, 0.5, -0.5, 0.866, 415.338, 0)"/><g class="f"><g transform="translate(-485.002 302.147)"><g class="g" transform="translate(697 172.5)"><path class="s" d="M138.65,307.6A154.021,154.021,0,0,1,0,154.359V154A154,154,0,0,1,154,0H376.2a154,154,0,0,1,154,154v.36a154,154,0,0,1-154,154H193L138.65,362.711Z"/><path class="t" d="M 138.6504058837891 362.7107849121094 L 193.0015869140625 308.3589782714844 L 376.2009582519531 308.3589782714844 C 461.2527770996094 308.3589782714844 530.2008666992188 239.4107818603516 530.2008666992188 154.3589630126953 L 530.2008666992188 153.9989624023438 C 530.2008666992188 68.94723510742188 461.2527770996094 -0.0008529718616046011 376.2009582519531 -0.0008529718616046011 L 153.9990386962891 -0.0008529718616046011 C 68.94721984863281 -0.0008529718616046011 -0.0008731134585104883 68.94723510742188 -0.0008731134585104883 153.9989624023438 L -0.0008731134585104883 154.3589630126953 C -0.0008731134585104883 234.2300567626953 60.80585479736328 299.8996887207031 138.6504058837891 307.6036071777344 L 138.6504058837891 362.7107849121094 M 138.64599609375 382.7113647460938 C 136.0694885253906 382.7113647460938 133.4713745117188 382.2134094238281 130.9967651367188 381.1884155273438 C 123.523307800293 378.0927734375 118.6503982543945 370.800048828125 118.6503982543945 362.7107849121094 L 118.6503982543945 324.7828369140625 C 38.44491195678711 308.3983764648438 -20.00087356567383 238.0747985839844 -20.00087356567383 154.3589630126953 C -20.00087356567383 58.05514526367188 58.05512619018555 -20.00085258483887 153.9990386962891 -20.00085258483887 L 376.2009582519531 -20.00085258483887 C 472.1448669433594 -20.00085258483887 550.2008666992188 58.05514526367188 550.2008666992188 153.9989624023438 C 550.2008666992188 250.3028717041016 472.1448669433594 328.3589782714844 376.2009582519531 328.3589782714844 L 201.2859191894531 328.3589782714844 L 152.7925872802734 376.8528747558594 C 148.9666290283203 380.6788940429688 143.8507843017578 382.7113647460938 138.64599609375 382.7113647460938 Z"/></g><g transform="translate(812.358 286.748)"><g class="h" transform="translate(0 0)"><circle class="s" cx="38.822" cy="38.822" r="38.822"/><circle class="a" cx="38.822" cy="38.822" r="28.822"/></g><g class="h" transform="translate(110.921 0)"><circle class="s" cx="38.822" cy="38.822" r="38.822"/><circle class="a" cx="38.822" cy="38.822" r="28.822"/></g><g class="h" transform="translate(221.842 0)"><circle class="s" cx="38.822" cy="38.822" r="38.822"/><circle class="a" cx="38.822" cy="38.822" r="28.822"/></g></g></g></g><g transform="translate(475.482 301.284)"><g transform="translate(51.325 125.722)"><path class="i" d="M0,0H205.258V160.758a85.555,85.555,0,0,1-85.469,85.555H85.555A85.555,85.555,0,0,1,0,160.757Z" transform="translate(279.829 607.563) rotate(180)"/><rect class="j" width="49.262" height="65.682" rx="24.631" transform="translate(201.83 394.095) rotate(180)"/><ellipse class="k" cx="108.623" cy="112.728" rx="108.623" ry="112.728" transform="translate(67.427 11.412)"/><ellipse class="l" cx="31.281" cy="31.281" rx="31.281" ry="31.281" transform="translate(47.149 151.727)"/><ellipse class="j" cx="16.257" cy="16.257" rx="16.257" ry="16.257" transform="translate(62.173 166.751)"/><ellipse class="l" cx="31.281" cy="31.281" rx="31.281" ry="31.281" transform="translate(244.195 151.727)"/><ellipse class="j" cx="16.257" cy="16.257" rx="16.257" ry="16.257" transform="translate(259.22 166.751)"/><path class="l" d="M192.194,2.762c54.1,0,97.949,56.158,97.949,125.293v82.678c0,69.213-43.843,125.293-97.949,125.293S94.245,279.949,94.245,210.733V128.055C94.245,58.92,138.088,2.762,192.194,2.762Z" transform="translate(-15.898 21.13)"/><path class="k" d="M113.894,70.773a50.244,50.244,0,0,1-13.789-39.82h99.67a50.244,50.244,0,0,1-13.789,39.82,51.314,51.314,0,0,0-72.092,0Z" transform="translate(27.015 236.785)"/><path class="m" d="M122.626,28.639h54.519a22.583,22.583,0,0,1,22.583,19.787H99.883a22.583,22.583,0,0,1,22.743-19.787Z" transform="translate(27.233 219.066)"/><path class="n" d="M137.522,63.909a50.244,50.244,0,0,1-36.046-15.272,51.315,51.315,0,0,1,72.092,0,50.244,50.244,0,0,1-36.046,15.272Z" transform="translate(39.431 258.921)"/><ellipse class="m" cx="20.772" cy="20.772" rx="20.772" ry="20.772" transform="translate(106.345 135.716)"/><circle class="k" cx="13.629" cy="13.629" r="13.629" transform="translate(113.488 142.859)"/><ellipse class="m" cx="20.772" cy="20.772" rx="20.772" ry="20.772" transform="translate(204.785 135.716)"/><ellipse class="k" cx="13.054" cy="13.629" rx="13.054" ry="13.629" transform="translate(212.504 142.859)"/><ellipse class="k" cx="20.033" cy="20.033" rx="20.033" ry="20.033" transform="translate(126.214 23.974)"/><ellipse class="k" cx="30.05" cy="30.05" rx="30.05" ry="30.05" transform="translate(146.246 16.421)"/><ellipse class="k" cx="22.25" cy="22.25" rx="22.25" ry="22.25" transform="translate(191.321 21.758)"/><circle class="k" cx="17.241" cy="17.241" r="17.241" transform="translate(226.461 41.791)"/><ellipse class="k" cx="9.688" cy="9.688" rx="9.688" ry="9.688" transform="translate(254.048 64.368)"/><ellipse class="k" cx="30.05" cy="30.05" rx="30.05" ry="30.05" transform="translate(154.457)"/><ellipse class="k" cx="22.25" cy="22.25" rx="22.25" ry="22.25" transform="translate(199.532 5.337)"/><ellipse class="k" cx="30.05" cy="30.05" rx="30.05" ry="30.05" transform="translate(108.398 12.069)"/><ellipse class="k" cx="22.25" cy="22.25" rx="22.25" ry="22.25" transform="translate(139.351 5.337)"/><circle class="k" cx="17.241" cy="17.241" r="17.241" transform="translate(234.671 25.37)"/><circle class="k" cx="13.465" cy="13.465" r="13.465" transform="translate(253.966 45.896)"/><circle class="k" cx="13.465" cy="13.465" r="13.465" transform="translate(78.922 45.896)"/><circle class="k" cx="17.241" cy="17.241" r="17.241" transform="translate(89.678 25.37)"/><ellipse class="k" cx="9.688" cy="9.688" rx="9.688" ry="9.688" transform="translate(111.764 42.448)"/><ellipse class="k" cx="9.688" cy="9.688" rx="9.688" ry="9.688" transform="translate(83.685 64.368)"/><ellipse class="k" cx="21.019" cy="21.019" rx="21.019" ry="21.019" transform="translate(93.618 34.236)"/><path class="k" d="M94.273,51.154a36.7,36.7,0,0,0,36.618,36.7h18.227a36.7,36.7,0,0,0,36.046-30.215h14.943A36.865,36.865,0,0,0,236.23,87.854h18.145a36.7,36.7,0,0,0,0-73.4H236.147A36.7,36.7,0,0,0,199.53,50.092H185.654A36.7,36.7,0,0,0,149.118,14.46H130.973a36.7,36.7,0,0,0-36.7,36.7Zm112.728,0a29.146,29.146,0,0,1,29.146-29.146H254.3a29.147,29.147,0,0,1,0,58.294h-18.15A29.147,29.147,0,0,1,207,51.153Zm-105.256,0A29.146,29.146,0,0,1,130.89,22.008h18.227a29.147,29.147,0,0,1,0,58.294H130.973a29.146,29.146,0,0,1-29.229-29.146Z" transform="translate(-15.679 110.589)"/><circle class="j" cx="3.448" cy="3.448" r="3.448" transform="translate(182.865 208.131)"/><circle class="j" cx="3.448" cy="3.448" r="3.448" transform="translate(162.339 208.131)"/><rect class="l" width="41.063" height="164.251" rx="12.294" transform="translate(354.329 570.988) rotate(160.007)"/><path class="o" d="M0,0H57.489V86.232a28.746,28.746,0,0,1-28.746,28.746h0A28.745,28.745,0,0,1,0,86.24Z" transform="translate(326.044 471.996) rotate(160.007)"/><rect class="l" width="41.063" height="164.251" rx="12.294" transform="translate(56.159 416.635) rotate(19.993)"/><path class="o" d="M28.747,0h0A28.747,28.747,0,0,1,57.493,28.747v86.231H0V28.747A28.747,28.747,0,0,1,28.747,0Z" transform="translate(67.617 363.951) rotate(19.993)"/><path class="p" d="M98.4,91.308a29.229,29.229,0,0,0,29.229,29.229h2.95a28.16,28.16,0,0,0,23.724,12.972h27.751A28.244,28.244,0,0,0,210.3,105.269V49.358H125.742v12.89A29.146,29.146,0,0,0,98.4,91.308Zm10.263,0a24.139,24.139,0,0,1,17.077-23.235v37.032a29.393,29.393,0,0,0,1.724,9.772,24.055,24.055,0,0,1-18.8-23.571Z" transform="translate(15.906 377.579)"/><ellipse class="q" cx="15.025" cy="15.025" rx="15.025" ry="15.025" transform="translate(172.108 445.491)"/><ellipse class="q" cx="4.845" cy="4.845" rx="4.845" ry="4.845" transform="translate(166.691 470.943)"/><path class="l" d="M277.3,146.388h0a19.048,19.048,0,0,1-27.422,9.607c-41.462-18.806-90.806-41.872-131.857-61.5a19.13,19.13,0,0,1-10.345-27.177h0a19.217,19.217,0,0,1,27.5-9.607c41.052,18.884,90.806,41.872,131.364,61.5A19.049,19.049,0,0,1,277.3,146.388Z" transform="translate(68.951 421.765)"/><path class="l" d="M117.775,86.945h0a8.21,8.21,0,0,1-8.21-8.21V62.314a8.21,8.21,0,0,1,8.21-8.21h0a8.21,8.21,0,0,1,8.21,8.21V78.735a8.21,8.21,0,0,1-8.21,8.21Z" transform="translate(101.297 413.883)"/><path class="l" d="M88.207,146.527h0a19.048,19.048,0,0,0,27.422,9.607c41.462-18.806,90.806-41.872,131.857-61.5A19.048,19.048,0,0,0,257.75,67.463h0A19.129,19.129,0,0,0,230,57.854c-41.052,18.884-90.314,41.872-131.364,61.5a19.048,19.048,0,0,0-10.423,27.177Z" transform="translate(-80.14 421.625)"/><path class="l" d="M107.78,86.945h0a8.21,8.21,0,0,1-8.21-8.21V62.314a8.21,8.21,0,0,1,8.21-8.21h0a8.21,8.21,0,0,1,8.21,8.21V78.735a8.21,8.21,0,0,1-8.21,8.21Z" transform="translate(24.837 413.883)"/></g></g><g class="f" transform="translate(418.932 311.829) rotate(-30)"><g transform="translate(211.997 474.647)"><g class="g" transform="translate(0 0)"><path class="s" d="M62.882,139.5A69.927,69.927,0,0,1,69.925,0H170.536a69.925,69.925,0,1,1,0,139.849h-83L62.882,164.5Z"/><path class="u" d="M 62.88210296630859 164.4993133544922 L 87.53218841552734 139.8491973876953 L 170.5355987548828 139.8491973876953 C 209.1537322998047 139.8491973876953 240.4602203369141 108.5426940917969 240.4602203369141 69.92460632324219 C 240.4602203369141 31.3065242767334 209.1537322998047 -1.761881503625773e-05 170.5355987548828 -1.761881503625773e-05 L 69.92460632324219 -1.761881503625773e-05 C 31.3065185546875 -1.761881503625773e-05 1.920572867675219e-05 31.3065242767334 1.920572867675219e-05 69.92460632324219 C 1.920572867675219e-05 106.1667709350586 27.56947708129883 135.9689331054688 62.88210296630859 139.4988555908203 L 62.88210296630859 164.4993133544922 M 62.8798942565918 174.4996185302734 C 61.59164428710938 174.4996185302734 60.29256439208984 174.2506256103516 59.05526733398438 173.7381134033203 C 55.31851959228516 172.1903228759766 52.88210296630859 168.5439453125 52.88210296630859 164.4993133544922 L 52.88210296630859 148.0373840332031 C 16.46205520629883 140.2055053710938 -9.999980926513672 108.08349609375 -9.999980926513672 69.92460632324219 C -9.999980926513672 25.85402488708496 25.85401916503906 -10.0000171661377 69.92460632324219 -10.0000171661377 L 170.5355987548828 -10.0000171661377 C 214.6061859130859 -10.0000171661377 250.4602203369141 25.85402488708496 250.4602203369141 69.92460632324219 C 250.4602203369141 113.9951934814453 214.6061859130859 149.8491973876953 170.5355987548828 149.8491973876953 L 91.67431640625 149.8491973876953 L 69.95318603515625 171.5703582763672 C 68.04017639160156 173.4833679199219 65.48227691650391 174.4996185302734 62.8798942565918 174.4996185302734 Z"/></g><g transform="translate(52.318 51.815)"><g class="r" transform="translate(0 0)"><circle class="s" cx="17.607" cy="17.607" r="17.607"/><circle class="a" cx="17.607" cy="17.607" r="12.607"/></g><g class="r" transform="translate(50.306 0)"><circle class="s" cx="17.607" cy="17.607" r="17.607"/><circle class="a" cx="17.607" cy="17.607" r="12.607"/></g><g class="r" transform="translate(100.611 0)"><circle class="s" cx="17.607" cy="17.607" r="17.607"/><circle class="a" cx="17.607" cy="17.607" r="12.607"/></g></g></g></g></g></g></svg>