<svg xmlns="http://www.w3.org/2000/svg" xmlns:xlink="http://www.w3.org/1999/xlink" viewBox="0 0 132 132"><defs><style>.a{fill:#fff;}.b{fill:#222;}.c{clip-path:url(#a);}.d{fill:#2196f3;}</style><clipPath id="a"><rect class="a" width="80" height="80"/></clipPath></defs><path class="b" d="M66,0A66,66,0,1,1,0,66,66,66,0,0,1,66,0Z"/><g class="c" transform="translate(25.958 25.583)"><g transform="translate(5 0)"><path class="d" d="M35,80h0L6.376,72,0,0H70L63.616,72,35,80ZM15.6,45.525h0l1.265,14.18,18.125,5.019.014,0,18.135-5.015,2.43-27.115.805-9.045.789-8.825H12.84l.575,8.346,34.2-.1-.66,8.97-32.666.385.88,8.38,31.04-.085L44.865,52.875,35,55.535l-.005.005-9.855-2.66-.66-7.355Z"/></g></g></svg>