<svg xmlns="http://www.w3.org/2000/svg" xmlns:xlink="http://www.w3.org/1999/xlink" viewBox="0 0 132 132"><defs><style>.a{fill:#fff;}.b{fill:#222;}.c{clip-path:url(#a);}.d{fill:#fc490b;}</style><clipPath id="a"><rect class="a" width="80" height="80" transform="translate(0)"/></clipPath></defs><path class="b" d="M66,0A66,66,0,1,1,0,66,66,66,0,0,1,66,0Z"/><g class="c" transform="translate(26.286 26.286)"><path class="d" d="M10.067,2.648l5.192,66.424a2.457,2.457,0,0,0,1.707,2.15l27.321,8.662a2.458,2.458,0,0,0,1.485,0l27.321-8.662a2.457,2.457,0,0,0,1.707-2.15L79.992,2.648A2.457,2.457,0,0,0,77.543,0H12.516A2.457,2.457,0,0,0,10.067,2.648ZM66.677,23.258H32.839l1.021,9.417H65.941l-2.1,26.847L45.03,65.486,26.216,59.521,25.12,45.5h9.875v6.88l10.3,2.764,10.237-2.764.794-10.965H24.8L22.708,14.634H67.351Z" transform="translate(-5.03)"/></g></svg>