<svg xmlns="http://www.w3.org/2000/svg" xmlns:xlink="http://www.w3.org/1999/xlink" viewBox="0 0 132 132"><defs><style>.a{fill:#e4ba42;}.b{fill:#222;}.c{clip-path:url(#a);}</style><clipPath id="a"><rect class="a" width="80" height="80"/></clipPath></defs><path class="b" d="M66,0A66,66,0,1,1,0,66,66,66,0,0,1,66,0Z"/><g class="c" transform="translate(26.498 26.203)"><g transform="translate(11.558 7.065)"><path class="a" d="M107.5,64.535c-1.113-3.229-5.678-3.229-6.569-.557s2.115,4.231,6.792,5.79,7.571,5.678,7.014,9.352-2.115,8.462-11.356,8.462A11.993,11.993,0,0,1,92.8,81.265l5.236-3.147s1.781,3.785,5.121,3.785,4.676-1.113,4.676-3.674c0-3.117-10.8-4.231-12.47-9.575s.557-12.915,8.35-12.358a12.082,12.082,0,0,1,8.981,4.485Z" transform="translate(-57.96 -35.198)"/><path class="a" d="M60.857,57.439V78.816A3.53,3.53,0,0,1,56.4,82.267c-2.227-.445-3.229-3.117-3.229-3.117L48.053,82.6s1.113,5.121,8.128,5.567S67.2,84.382,67.2,80.82V57.439Z" transform="translate(-35.584 -35.784)"/><path class="a" d="M23.115,14.129v61.06a40.021,40.021,0,0,0,5.4,4.573H74.6a40.1,40.1,0,0,0,4.38-3.582H26.7V17.711H85.164V68.766a39.784,39.784,0,0,0,3.584-6.945V14.129Z" transform="translate(-23.115 -14.129)"/></g></g></svg>