<svg xmlns="http://www.w3.org/2000/svg" viewBox="0 0 170.141 28.97"><defs><style>.a{fill:#fff;}</style></defs><g transform="translate(-145.506 -28.488)"><g transform="translate(145.506 28.488)"><g transform="translate(0 0)"><path class="a" d="M16.052,4.634A7.493,7.493,0,0,0,8.956,0L5.969,4.634H8.747a2.527,2.527,0,0,1,2.572,2.317A2.447,2.447,0,0,1,8.85,9.365H2.984L0,14v7.531A8.44,8.44,0,0,0,1.029,25.49a8.3,8.3,0,0,0,3.91,3.476V14H8.953a7.493,7.493,0,0,0,7.1-4.635,6.13,6.13,0,0,0,.411-2.317,6.624,6.624,0,0,0-.408-2.414Z" transform="translate(0 0.003)"/></g><g transform="translate(10.703 0.002)"><path class="a" d="M10.812,24.332a7.493,7.493,0,0,0,7.1,4.635l2.984-4.635H18.118a2.527,2.527,0,0,1-2.576-2.317A2.447,2.447,0,0,1,18.011,19.6h5.866l2.984-4.635V7.435a8.44,8.44,0,0,0-1.026-3.959A8.3,8.3,0,0,0,21.925,0V14.966H17.912a7.493,7.493,0,0,0-7.1,4.635,6.13,6.13,0,0,0-.411,2.317,6.294,6.294,0,0,0,.408,2.414Z" transform="translate(-10.402)"/></g></g><path class="a" d="M3.612-4.5V0H1.028V-12.8H5.388a4,4,0,0,1,3.028,1.178A4.236,4.236,0,0,1,9.545-8.561,3.961,3.961,0,0,1,8.429-5.59,4.24,4.24,0,0,1,5.335-4.5Zm0-2.153H5.388A1.407,1.407,0,0,0,6.53-7.137a2.141,2.141,0,0,0,.4-1.406,2.536,2.536,0,0,0-.413-1.525,1.325,1.325,0,0,0-1.107-.576h-1.8ZM15.5-4.676H14.22V0H11.636V-12.8h4.122a4.187,4.187,0,0,1,3,1.006A3.758,3.758,0,0,1,19.819-8.93a3.722,3.722,0,0,1-1.854,3.568L20.206-.123V0H17.428ZM14.22-6.829h1.468a1.359,1.359,0,0,0,1.16-.514,2.234,2.234,0,0,0,.387-1.375q0-1.925-1.5-1.925H14.22ZM30.963-5.247a5.969,5.969,0,0,1-1.217,4A4.208,4.208,0,0,1,26.366.176a4.256,4.256,0,0,1-3.384-1.411,5.882,5.882,0,0,1-1.248-3.951V-7.374a6.292,6.292,0,0,1,1.222-4.118,4.157,4.157,0,0,1,3.393-1.481,4.176,4.176,0,0,1,3.366,1.455,6.2,6.2,0,0,1,1.248,4.083ZM28.37-7.392a5.255,5.255,0,0,0-.492-2.575,1.647,1.647,0,0,0-1.529-.844A1.653,1.653,0,0,0,24.828-10a4.993,4.993,0,0,0-.51,2.474v2.276a4.759,4.759,0,0,0,.5,2.474,1.7,1.7,0,0,0,1.547.8,1.656,1.656,0,0,0,1.5-.778,4.667,4.667,0,0,0,.5-2.413ZM37.388-12.8h2.584v8.859A4.235,4.235,0,0,1,38.934-.949,3.47,3.47,0,0,1,36.263.176,3.554,3.554,0,0,1,33.529-.87a4.1,4.1,0,0,1-.976-2.909h2.593q0,1.811,1.116,1.811t1.125-2.092Zm11.584,7.26H44.946v3.393H49.71V0H42.362V-12.8h7.33v2.153H44.946V-7.62h4.025ZM60.23-4.263A4.786,4.786,0,0,1,59-.949,4.346,4.346,0,0,1,55.8.176a4.031,4.031,0,0,1-3.327-1.428,6.329,6.329,0,0,1-1.156-4.074V-7.479a6.166,6.166,0,0,1,1.2-4.065,4.1,4.1,0,0,1,3.322-1.428A4.125,4.125,0,0,1,59.012-11.8a5.316,5.316,0,0,1,1.235,3.357H57.654a3.447,3.447,0,0,0-.417-1.868,1.647,1.647,0,0,0-1.4-.514,1.568,1.568,0,0,0-1.468.725,5.07,5.07,0,0,0-.457,2.386V-5.3a5.578,5.578,0,0,0,.426,2.619,1.566,1.566,0,0,0,1.463.712,1.692,1.692,0,0,0,1.406-.5,3.271,3.271,0,0,0,.439-1.8Zm9.984-6.381H67.05V0H64.457V-10.644H61.346V-12.8h8.868ZM76.04,0V-12.8h3.384A4.657,4.657,0,0,1,83-11.373a5.579,5.579,0,0,1,1.358,3.9V-5.4a5.6,5.6,0,0,1-1.332,3.959A4.756,4.756,0,0,1,79.354,0Zm2.584-10.644v8.5H79.4a2.168,2.168,0,0,0,1.819-.681,4.053,4.053,0,0,0,.554-2.351V-7.4a4.545,4.545,0,0,0-.5-2.5,2.022,2.022,0,0,0-1.705-.743ZM93.178-5.537H89.153v3.393h4.764V0H86.569V-12.8H93.9v2.153H89.153V-7.62h4.025Zm7.989,2.18a1.6,1.6,0,0,0-.4-1.182,4.6,4.6,0,0,0-1.455-.831A6.778,6.778,0,0,1,96.544-7.08,3.435,3.435,0,0,1,95.7-9.4a3.247,3.247,0,0,1,1.147-2.6,4.327,4.327,0,0,1,2.914-.98,4.363,4.363,0,0,1,2.1.5,3.445,3.445,0,0,1,1.419,1.4,4.205,4.205,0,0,1,.5,2.057H101.2a2.122,2.122,0,0,0-.382-1.367,1.339,1.339,0,0,0-1.1-.47,1.381,1.381,0,0,0-1.055.4,1.5,1.5,0,0,0-.378,1.077,1.326,1.326,0,0,0,.422.954,4.851,4.851,0,0,0,1.494.883,6.4,6.4,0,0,1,2.72,1.661,3.7,3.7,0,0,1,.848,2.5,3.3,3.3,0,0,1-1.063,2.61,4.21,4.21,0,0,1-2.892.94,4.979,4.979,0,0,1-2.259-.51,3.823,3.823,0,0,1-1.6-1.459,4.238,4.238,0,0,1-.576-2.241h2.593a2.445,2.445,0,0,0,.431,1.608,1.763,1.763,0,0,0,1.406.5Q101.167-1.925,101.167-3.357ZM108.541,0h-2.584V-12.8h2.584Zm11.232-1.45a4.715,4.715,0,0,1-1.833,1.217,6.7,6.7,0,0,1-2.377.409,4.359,4.359,0,0,1-3.428-1.367,5.91,5.91,0,0,1-1.257-3.977v-2.3a6.329,6.329,0,0,1,1.156-4.074,4.082,4.082,0,0,1,3.371-1.428,4.341,4.341,0,0,1,3.142,1.028,4.866,4.866,0,0,1,1.226,3.226h-2.514a2.919,2.919,0,0,0-.51-1.666,1.633,1.633,0,0,0-1.266-.444,1.655,1.655,0,0,0-1.521.765,4.873,4.873,0,0,0-.492,2.435v2.32a4.761,4.761,0,0,0,.523,2.544,1.9,1.9,0,0,0,1.718.8,2.245,2.245,0,0,0,1.239-.308l.229-.158V-4.781H115.37V-6.732h4.4ZM130.909,0h-2.584l-3.779-8.394V0h-2.584V-12.8h2.584l3.788,8.4v-8.4h2.575Z" transform="translate(184.738 49.46)"/></g></svg>