<svg width="176" height="38" viewBox="0 0 176 38" fill="none" xmlns="http://www.w3.org/2000/svg">
<path d="M38 19C38 29.4934 29.4934 38 19 38C8.50659 38 0 29.4934 0 19C0 8.50659 8.50659 0 19 0C29.4934 0 38 8.50659 38 19Z" fill="#3F35DE"/>
<path d="M24.7284 11.676C24.2711 10.5672 23.4888 9.62269 22.4845 8.96683C21.4802 8.31097 20.3008 7.97445 19.1017 8.00151L16.7331 11.676H18.9359C19.4459 11.6652 19.9407 11.8492 20.3197 12.1906C20.6986 12.532 20.9331 13.005 20.9754 13.5133C20.9685 14.0264 20.7586 14.5159 20.3917 14.8746C20.0248 15.2334 19.5307 15.4321 19.0176 15.4275H14.3662L12 19.1028V25.0745C12.0104 26.172 12.2907 27.2501 12.8159 28.2138C13.5253 29.4428 14.6128 30.4096 15.9164 30.9701V19.1028H19.0993C20.2991 19.1305 21.4792 18.7941 22.4841 18.1381C23.4891 17.482 24.2718 16.537 24.7292 15.4275C24.9555 14.8419 25.0662 14.2179 25.0551 13.5902C25.0672 12.9376 24.9574 12.2885 24.7316 11.676H24.7284Z" fill="white"/>
<path d="M48.584 20.8993V25.3993H46V12.5993H50.36C50.919 12.5729 51.4774 12.6641 51.999 12.8671C52.5206 13.07 52.9938 13.3801 53.388 13.7773C53.7692 14.1876 54.0652 14.6694 54.259 15.1948C54.4528 15.7202 54.5405 16.2788 54.517 16.8383C54.5459 17.3837 54.4616 17.9292 54.2696 18.4405C54.0775 18.9518 53.7818 19.4178 53.401 19.8093C52.9835 20.1874 52.4949 20.4785 51.9637 20.6657C51.4325 20.8528 50.8693 20.9323 50.307 20.8993H48.584ZM48.584 18.7463H50.36C50.5747 18.7583 50.7892 18.7209 50.9872 18.637C51.1852 18.5531 51.3613 18.4249 51.502 18.2623C51.7962 17.8551 51.9377 17.3574 51.902 16.8563C51.9302 16.317 51.7855 15.7827 51.489 15.3313C51.366 15.1518 51.2006 15.0053 51.0076 14.9049C50.8145 14.8044 50.5996 14.753 50.382 14.7553H48.582L48.584 18.7463ZM60.472 20.7233H59.192V25.3993H56.608V12.5993H60.73C61.8231 12.5294 62.9001 12.8905 63.73 13.6053C64.0975 13.9819 64.3818 14.4313 64.5646 14.9247C64.7473 15.418 64.8245 15.9443 64.791 16.4693C64.8561 17.1792 64.7159 17.8927 64.3873 18.5252C64.0586 19.1577 63.5552 19.6826 62.937 20.0373L65.178 25.2763V25.3993H62.4L60.472 20.7233ZM59.192 18.5703H60.66C60.8806 18.5855 61.1015 18.5466 61.3037 18.457C61.5058 18.3674 61.683 18.2299 61.82 18.0563C62.096 17.6527 62.232 17.1697 62.207 16.6813C62.207 15.398 61.707 14.7563 60.707 14.7563H59.192V18.5703ZM75.935 20.1523C76.0248 21.5888 75.5926 23.0093 74.718 24.1523C74.2985 24.6292 73.7765 25.005 73.1912 25.2514C72.6058 25.4979 71.9723 25.6086 71.338 25.5753C70.7044 25.6072 70.0718 25.497 69.4863 25.2529C68.9008 25.0088 68.3773 24.6369 67.954 24.1643C67.0726 23.0423 66.629 21.6381 66.706 20.2133V18.0253C66.6177 16.5518 67.0502 15.0942 67.928 13.9073C68.3407 13.4151 68.8618 13.0252 69.4505 12.7683C70.0392 12.5113 70.6795 12.3943 71.321 12.4263C71.9558 12.3968 72.5889 12.5125 73.1722 12.7646C73.7556 13.0168 74.2736 13.3987 74.687 13.8813C75.5733 15.0517 76.0155 16.4985 75.935 17.9643V20.1523ZM73.342 18.0073C73.3982 17.1212 73.2289 16.2353 72.85 15.4323C72.6999 15.1625 72.4769 14.9402 72.2066 14.791C71.9362 14.6417 71.6294 14.5715 71.321 14.5883C71.0174 14.5705 70.7148 14.6368 70.4464 14.7799C70.1781 14.923 69.9544 15.1373 69.8 15.3993C69.4208 16.1667 69.2451 17.0186 69.29 17.8733V20.1493C69.231 21.004 69.4037 21.8587 69.79 22.6233C69.9518 22.8838 70.1809 23.0957 70.4533 23.2365C70.7256 23.3773 71.031 23.4419 71.337 23.4233C71.6338 23.4403 71.9298 23.3769 72.1937 23.2401C72.4576 23.1032 72.6798 22.8977 72.837 22.6453C73.2168 21.9003 73.3895 21.0669 73.337 20.2323L73.342 18.0073ZM82.36 12.5993H84.944V21.4583C84.998 22.5524 84.6259 23.6248 83.906 24.4503C83.5682 24.8193 83.1546 25.1109 82.6936 25.3051C82.2325 25.4992 81.735 25.5914 81.235 25.5753C80.7311 25.6051 80.2267 25.5272 79.7553 25.3469C79.2839 25.1665 78.8563 24.8878 78.501 24.5293C77.8114 23.7225 77.4616 22.6798 77.525 21.6203H80.118C80.118 22.8277 80.49 23.4313 81.234 23.4313C81.978 23.4313 82.353 22.734 82.359 21.3393L82.36 12.5993ZM93.944 19.8593H89.918V23.2523H94.682V25.3993H87.334V12.5993H94.664V14.7523H89.918V17.7793H93.943L93.944 19.8593ZM105.202 21.1363C105.23 22.3575 104.79 23.5431 103.972 24.4503C103.541 24.8428 103.036 25.1447 102.486 25.3379C101.937 25.5312 101.354 25.6119 100.772 25.5753C100.145 25.6132 99.5168 25.5038 98.9392 25.2559C98.3615 25.0079 97.8498 24.6283 97.445 24.1473C96.6033 22.9624 96.1951 21.5238 96.289 20.0733V17.9203C96.1961 16.4661 96.6212 15.026 97.489 13.8553C97.8967 13.3792 98.4082 13.0029 98.9841 12.7553C99.56 12.5078 100.185 12.3956 100.811 12.4273C101.393 12.3874 101.976 12.4711 102.523 12.6731C103.07 12.8752 103.568 13.1908 103.984 13.5993C104.771 14.5421 105.207 15.7283 105.219 16.9563H102.626C102.666 16.3068 102.522 15.6592 102.209 15.0883C102.033 14.8986 101.814 14.7531 101.571 14.6638C101.327 14.5745 101.066 14.5438 100.809 14.5743C100.521 14.5482 100.232 14.6021 99.9729 14.73C99.7138 14.858 99.4951 15.055 99.341 15.2993C98.9976 16.0459 98.8407 16.8647 98.884 17.6853V20.0993C98.8133 20.9939 98.9594 21.8923 99.31 22.7183C99.4652 22.9597 99.6838 23.1537 99.9418 23.2793C100.2 23.4048 100.487 23.4571 100.773 23.4303C101.03 23.46 101.29 23.4304 101.534 23.3437C101.778 23.257 101.998 23.1156 102.179 22.9303C102.496 22.3852 102.648 21.7601 102.618 21.1303L105.202 21.1363ZM115.186 14.7553H112.022V25.3993H109.429V14.7553H106.318V12.5993H115.186V14.7553ZM121.012 25.3993V12.5993H124.396C125.059 12.5685 125.722 12.6799 126.338 12.926C126.955 13.1721 127.512 13.5473 127.972 14.0263C128.907 15.1048 129.393 16.5005 129.33 17.9263V19.9993C129.413 21.4414 128.936 22.8598 127.998 23.9583C127.525 24.4472 126.952 24.8289 126.318 25.0775C125.685 25.3261 125.006 25.4358 124.326 25.3993H121.012ZM123.596 14.7553V23.2553H124.372C124.707 23.2911 125.046 23.2482 125.362 23.1299C125.678 23.0117 125.962 22.8215 126.191 22.5743C126.61 21.8652 126.804 21.0451 126.745 20.2233V17.9993C126.82 17.1354 126.647 16.2679 126.245 15.4993C126.041 15.2481 125.78 15.0495 125.483 14.9202C125.186 14.7909 124.863 14.7347 124.54 14.7563L123.596 14.7553ZM138.15 19.8623H134.125V23.2553H138.889V25.3993H131.541V12.5993H138.872V14.7523H134.125V17.7793H138.15V19.8623ZM146.139 22.0423C146.155 21.8286 146.128 21.6138 146.059 21.4107C145.99 21.2077 145.881 21.0205 145.739 20.8603C145.309 20.4966 144.816 20.2149 144.284 20.0293C143.236 19.6925 142.286 19.1056 141.516 18.3193C140.957 17.6773 140.656 16.8505 140.672 15.9993C140.654 15.5074 140.747 15.0176 140.946 14.5672C141.145 14.1168 141.443 13.7174 141.819 13.3993C142.638 12.727 143.674 12.3783 144.733 12.4193C145.464 12.4075 146.186 12.5794 146.833 12.9193C147.434 13.236 147.927 13.723 148.252 14.3193C148.591 14.9511 148.763 15.6593 148.752 16.3763H146.172C146.205 15.8903 146.07 15.4076 145.79 15.0093C145.656 14.8511 145.486 14.7262 145.295 14.6447C145.105 14.5631 144.897 14.527 144.69 14.5393C144.496 14.528 144.302 14.5578 144.12 14.6267C143.938 14.6956 143.773 14.8022 143.635 14.9393C143.372 15.2345 143.236 15.6216 143.257 16.0163C143.259 16.1956 143.298 16.3726 143.37 16.5366C143.443 16.7006 143.548 16.8481 143.679 16.9703C144.12 17.3521 144.626 17.6512 145.173 17.8533C146.205 18.1688 147.141 18.7402 147.893 19.5143C148.473 20.2151 148.775 21.1051 148.741 22.0143C148.767 22.5009 148.686 22.9872 148.502 23.4385C148.318 23.8898 148.037 24.2948 147.678 24.6243C146.865 25.287 145.833 25.6223 144.786 25.5643C144.003 25.5743 143.229 25.3995 142.527 25.0543C141.864 24.7324 141.309 24.2257 140.927 23.5953C140.531 22.9162 140.331 22.1403 140.351 21.3543H142.944C142.895 21.9243 143.048 22.4933 143.375 22.9623C143.559 23.1434 143.78 23.282 144.022 23.3684C144.265 23.4548 144.524 23.4869 144.781 23.4623C145.686 23.4703 146.139 22.997 146.139 22.0423ZM153.513 25.3993H150.929V12.5993H153.513V25.3993ZM164.745 23.9493C164.239 24.4939 163.61 24.9109 162.912 25.1663C162.151 25.4453 161.346 25.5839 160.535 25.5753C159.898 25.6121 159.261 25.5087 158.669 25.2725C158.077 25.0363 157.544 24.6731 157.107 24.2083C156.219 23.0795 155.772 21.6657 155.85 20.2313V17.9313C155.756 16.4809 156.164 15.0423 157.006 13.8573C157.418 13.3733 157.937 12.9922 158.522 12.7442C159.108 12.4963 159.743 12.3885 160.377 12.4293C161.519 12.3442 162.648 12.7137 163.519 13.4573C164.308 14.3468 164.744 15.4943 164.745 16.6833H162.231C162.235 16.089 162.057 15.5078 161.721 15.0173C161.553 14.8579 161.354 14.7359 161.136 14.6593C160.917 14.5828 160.685 14.5535 160.455 14.5733C160.156 14.5511 159.856 14.6105 159.589 14.7453C159.321 14.88 159.094 15.085 158.934 15.3383C158.562 16.0939 158.393 16.9328 158.442 17.7733V20.0933C158.377 20.9734 158.558 21.8542 158.965 22.6373C159.156 22.9094 159.416 23.1264 159.717 23.2668C160.019 23.4072 160.352 23.466 160.683 23.4373C161.117 23.4567 161.548 23.3497 161.922 23.1293L162.151 22.9713V20.6183H160.342V18.6673H164.742L164.745 23.9493ZM175.881 25.3993H173.297L169.518 17.0053V25.3993H166.934V12.5993H169.518L173.306 20.9993V12.5993H175.881V25.3993Z" fill="white"/>
</svg>
