<svg width="780" height="720" viewBox="0 0 780 720" fill="none" xmlns="http://www.w3.org/2000/svg">
<g clip-path="url(#clip0_1_12)">
<mask id="mask0_1_12" style="mask-type:luminance" maskUnits="userSpaceOnUse" x="0" y="0" width="780" height="720">
<path d="M0 0H780V720H0V0Z" fill="white"/>
</mask>
<g mask="url(#mask0_1_12)">
<mask id="mask1_1_12" style="mask-type:luminance" maskUnits="userSpaceOnUse" x="6" y="-114" width="1140" height="825">
<path d="M1145.45 -42.59C1141.61 -9.96899 1114.69 15.862 1108.3 48.081C1107.48 52.3074 1106.98 56.5879 1106.79 60.888C1105.87 79.388 1109.54 98.277 1107.65 116.812C1104.13 151.569 1083 178.731 1056.18 202.271C1035.89 220.032 1012.34 235.656 990.683 250.771C935.534 289.295 883.81 337.933 861.158 401.276C846.058 443.515 844.904 489.418 833.821 532.886C822.738 576.354 797.495 620.832 754.833 634.692C709.044 649.573 658.59 624.764 611.469 634.568C560.901 645.094 525.04 692.886 475.143 706.384C411.743 723.536 348.569 681.389 283.492 672.607C252.243 668.386 220.437 671.967 189.024 669.263C154.08 666.214 120.246 655.461 89.953 637.777C79.633 631.719 69.2 624.277 64.401 613.277C60.273 603.777 60.901 592.936 62.172 582.648C66.919 544.464 78.932 502.958 60.036 469.397C42.606 438.437 0.365999 416.291 6.631 381.337C10.408 360.305 31.048 347.168 50.263 337.746C89.807 318.315 131.933 303.104 167.281 276.86C192.565 258.06 214.34 231.824 223.628 202.319C227.423 190.527 228.981 178.13 228.22 165.766C226.92 146.266 220.17 124.366 231.935 108.749C237.035 101.979 244.845 97.82 252.699 94.642C282.317 82.671 315.217 81.979 346.012 73.476C356.569 70.5768 366.713 66.3426 376.198 60.876C394.98 49.999 410.098 33.976 413.752 13.054C415.888 0.794008 413.989 -12.591 420.109 -23.427C430.429 -41.796 450.831 -49.474 473.618 -51.972C501.818 -55.072 533.762 -50.228 555.145 -47.844L557.281 -47.617C584.742 -44.758 611.981 -50.837 638.736 -60.001C667.636 -69.815 695.877 -83.169 723.359 -92.663C725.939 -93.5577 728.512 -94.4143 731.078 -95.233C751.139 -101.626 771.679 -106.405 792.502 -109.526C821.868 -113.946 851.634 -115.095 881.253 -112.952C896.275 -111.87 911.222 -109.927 926.021 -107.132C930.369 -106.307 934.71 -105.423 939.045 -104.48C964.245 -99.08 989.313 -92.488 1015.02 -92.096H1020.57C1051.23 -92.622 1082.58 -100.414 1111.67 -91.002C1124.95 -86.702 1137.58 -78.236 1142.91 -65.402C1145.87 -58.248 1146.35 -50.27 1145.45 -42.59Z" fill="white"/>
</mask>
<g mask="url(#mask1_1_12)">
<path d="M-109.583 -21.684H1030.27V735.777H-109.583V-21.684Z" fill="url(#paint0_radial_1_12)"/>
<path d="M312.212 424.016C302.372 434.094 302.281 451.157 312.012 462.153C321.743 473.149 337.57 473.873 347.441 463.814L400.041 409.995L362.548 372.495L312.212 424.016Z" fill="#E18A64"/>
<path d="M458.59 312.087C448.859 301.133 433.032 300.349 423.161 310.426L362.49 372.497L399.99 409.997L458.41 350.209C468.284 340.148 468.375 323.078 458.59 312.087Z" fill="#0F2437"/>
<path d="M445.226 248.521C448.422 248.521 451.013 245.93 451.013 242.734C451.013 239.538 448.422 236.947 445.226 236.947C442.03 236.947 439.439 239.538 439.439 242.734C439.439 245.93 442.03 248.521 445.226 248.521Z" fill="white"/>
<g opacity="0.4">
<path d="M408.215 160.229H370.148V263.71H408.215V160.229Z" fill="#0089CF"/>
<path d="M401.436 168.448H376.929V225.246H401.436V168.448Z" fill="white"/>
<path d="M389.183 247.954C392.499 247.954 395.187 245.266 395.187 241.95C395.187 238.634 392.499 235.946 389.183 235.946C385.867 235.946 383.179 238.634 383.179 241.95C383.179 245.266 385.867 247.954 389.183 247.954Z" fill="white"/>
<path d="M332.916 160.229H370.983V263.71H332.916V160.229Z" fill="#002131"/>
<path d="M364.202 168.448H339.695V225.246H364.202V168.448Z" fill="white"/>
<path d="M351.967 247.954C355.283 247.954 357.971 245.266 357.971 241.95C357.971 238.634 355.283 235.946 351.967 235.946C348.651 235.946 345.963 238.634 345.963 241.95C345.963 245.266 348.651 247.954 351.967 247.954Z" fill="white"/>
<path d="M482.683 160.229H444.616V263.71H482.683V160.229Z" fill="#E14F28"/>
<path d="M475.904 168.448H451.397V225.246H475.904V168.448Z" fill="white"/>
<path d="M445.449 160.229H407.382V263.71H445.449V160.229Z" fill="#22B573"/>
<path d="M438.67 168.448H414.163V225.246H438.67V168.448Z" fill="white"/>
<path d="M426.416 247.954C429.732 247.954 432.42 245.266 432.42 241.95C432.42 238.634 429.732 235.946 426.416 235.946C423.1 235.946 420.412 238.634 420.412 241.95C420.412 245.266 423.1 247.954 426.416 247.954Z" fill="white"/>
<path d="M259.301 160.229H221.234V263.71H259.301V160.229Z" fill="#00CDF3"/>
<path d="M252.52 168.448H228.013V225.246H252.52V168.448Z" fill="white"/>
<path d="M240.268 247.954C243.584 247.954 246.272 245.266 246.272 241.95C246.272 238.634 243.584 235.946 240.268 235.946C236.952 235.946 234.264 238.634 234.264 241.95C234.264 245.266 236.952 247.954 240.268 247.954Z" fill="white"/>
<path d="M222.067 160.229H184V263.71H222.067V160.229Z" fill="#002131"/>
<path d="M215.288 168.448H190.781V225.246H215.288V168.448Z" fill="white"/>
<path d="M203.034 247.954C206.35 247.954 209.038 245.266 209.038 241.95C209.038 238.634 206.35 235.946 203.034 235.946C199.718 235.946 197.03 238.634 197.03 241.95C197.03 245.266 199.718 247.954 203.034 247.954Z" fill="white"/>
<path d="M333.769 160.229H295.702V263.71H333.769V160.229Z" fill="#FBB03B"/>
<path d="M326.987 168.448H302.48V225.246H326.987V168.448Z" fill="white"/>
<path d="M314.735 247.954C318.051 247.954 320.739 245.266 320.739 241.95C320.739 238.634 318.051 235.946 314.735 235.946C311.419 235.946 308.731 238.634 308.731 241.95C308.731 245.266 311.419 247.954 314.735 247.954Z" fill="white"/>
<path d="M296.535 160.229H258.468V263.71H296.535V160.229Z" fill="#E14F28"/>
<path d="M289.754 168.448H265.247V225.246H289.754V168.448Z" fill="white"/>
<path d="M277.502 247.954C280.818 247.954 283.506 245.266 283.506 241.95C283.506 238.634 280.818 235.946 277.502 235.946C274.186 235.946 271.498 238.634 271.498 241.95C271.498 245.266 274.186 247.954 277.502 247.954Z" fill="white"/>
<path d="M705.949 160.229H667.882V263.71H705.949V160.229Z" fill="#0089CF"/>
<path d="M699.17 168.448H674.663V225.246H699.17V168.448Z" fill="white"/>
<path d="M686.917 247.954C690.233 247.954 692.921 245.266 692.921 241.95C692.921 238.634 690.233 235.946 686.917 235.946C683.601 235.946 680.913 238.634 680.913 241.95C680.913 245.266 683.601 247.954 686.917 247.954Z" fill="white"/>
<path d="M630.65 160.229H668.717V263.71H630.65V160.229Z" fill="#002131"/>
<path d="M661.936 168.448H637.429V225.246H661.936V168.448Z" fill="white"/>
<path d="M649.701 247.954C653.017 247.954 655.705 245.266 655.705 241.95C655.705 238.634 653.017 235.946 649.701 235.946C646.385 235.946 643.697 238.634 643.697 241.95C643.697 245.266 646.385 247.954 649.701 247.954Z" fill="white"/>
<path d="M780.417 160.229H742.35V263.71H780.417V160.229Z" fill="#E14F28"/>
<path d="M773.638 168.448H749.131V225.246H773.638V168.448Z" fill="white"/>
<path d="M743.183 160.229H705.116V263.71H743.183V160.229Z" fill="#22B573"/>
<path d="M736.404 168.448H711.897V225.246H736.404V168.448Z" fill="white"/>
<path d="M724.15 247.954C727.466 247.954 730.154 245.266 730.154 241.95C730.154 238.634 727.466 235.946 724.15 235.946C720.834 235.946 718.146 238.634 718.146 241.95C718.146 245.266 720.834 247.954 724.15 247.954Z" fill="white"/>
<path d="M761.496 247.954C764.812 247.954 767.5 245.266 767.5 241.95C767.5 238.634 764.812 235.946 761.496 235.946C758.18 235.946 755.492 238.634 755.492 241.95C755.492 245.266 758.18 247.954 761.496 247.954Z" fill="white"/>
<path d="M557.035 160.229H518.968V263.71H557.035V160.229Z" fill="#00CDF3"/>
<path d="M550.254 168.448H525.747V225.246H550.254V168.448Z" fill="white"/>
<path d="M538.002 247.954C541.318 247.954 544.006 245.266 544.006 241.95C544.006 238.634 541.318 235.946 538.002 235.946C534.686 235.946 531.998 238.634 531.998 241.95C531.998 245.266 534.686 247.954 538.002 247.954Z" fill="white"/>
<path d="M519.801 160.229H481.734V263.71H519.801V160.229Z" fill="#002131"/>
<path d="M513.022 168.448H488.515V225.246H513.022V168.448Z" fill="white"/>
<path d="M500.768 247.954C504.084 247.954 506.772 245.266 506.772 241.95C506.772 238.634 504.084 235.946 500.768 235.946C497.452 235.946 494.764 238.634 494.764 241.95C494.764 245.266 497.452 247.954 500.768 247.954Z" fill="white"/>
<path d="M631.503 160.229H593.436V263.71H631.503V160.229Z" fill="#FBB03B"/>
<path d="M624.721 168.448H600.214V225.246H624.721V168.448Z" fill="white"/>
<path d="M612.469 247.954C615.785 247.954 618.473 245.266 618.473 241.95C618.473 238.634 615.785 235.946 612.469 235.946C609.153 235.946 606.465 238.634 606.465 241.95C606.465 245.266 609.153 247.954 612.469 247.954Z" fill="white"/>
<path d="M594.269 160.229H556.202V263.71H594.269V160.229Z" fill="#E14F28"/>
<path d="M587.488 168.448H562.981V225.246H587.488V168.448Z" fill="white"/>
<path d="M575.236 247.954C578.552 247.954 581.24 245.266 581.24 241.95C581.24 238.634 578.552 235.946 575.236 235.946C571.92 235.946 569.232 238.634 569.232 241.95C569.232 245.266 571.92 247.954 575.236 247.954Z" fill="white"/>
<path d="M779.73 263.728H141.612V295.366H779.73V263.728Z" fill="#FFF1F1"/>
</g>
<path d="M704.191 462.154C694.46 473.108 678.633 473.874 668.762 463.815L557.747 350.208C547.907 340.148 547.816 323.08 557.547 312.09C567.278 301.136 583.105 300.352 592.976 310.429L703.991 424.019C713.827 434.097 713.916 451.158 704.191 462.154Z" fill="#2667EA"/>
<path d="M530.647 537.64C523.674 523.565 528.512 506.021 541.454 498.44L675.232 420.072C688.176 412.478 704.308 417.735 711.288 431.81C718.261 445.867 713.423 463.41 700.498 470.987L566.698 549.379C553.759 556.955 537.62 551.697 530.647 537.64Z" fill="#E18A64"/>
<path d="M485.104 537.641C492.077 523.566 487.239 506.022 474.316 498.441L340.522 420.071C327.578 412.477 311.446 417.734 304.467 431.809C297.494 445.866 302.332 463.409 315.274 470.986L449.052 549.377C462.003 556.955 478.141 551.697 485.104 537.641Z" fill="#E18A64"/>
<path d="M706.743 424.016C716.565 434.094 716.656 451.157 706.925 462.153C697.194 473.149 681.367 473.871 671.497 463.815L618.914 409.996L656.396 372.496L706.743 424.016Z" fill="#E18A64"/>
<path d="M560.294 312.087C570.025 301.133 585.852 300.349 595.723 310.426L656.389 372.496L618.909 409.996L560.489 350.208C550.654 340.148 550.562 323.078 560.294 312.087Z" fill="#0F2437"/>
<path d="M507.88 288.774C546.889 288.774 578.512 255.941 578.512 215.44C578.512 174.939 546.889 142.106 507.88 142.106C468.871 142.106 437.248 174.939 437.248 215.44C437.248 255.941 468.871 288.774 507.88 288.774Z" fill="#160204"/>
<path d="M571.375 274.116C582.627 274.116 591.749 264.994 591.749 253.742C591.749 242.49 582.627 233.368 571.375 233.368C560.123 233.368 551.001 242.49 551.001 253.742C551.001 264.994 560.123 274.116 571.375 274.116Z" fill="#E18A64"/>
<path d="M571.374 264.329C577.222 264.329 581.962 259.589 581.962 253.741C581.962 247.893 577.222 243.153 571.374 243.153C565.526 243.153 560.786 247.893 560.786 253.741C560.786 259.589 565.526 264.329 571.374 264.329Z" fill="#CB7456"/>
<path d="M443.181 274.116C454.433 274.116 463.555 264.994 463.555 253.742C463.555 242.49 454.433 233.368 443.181 233.368C431.929 233.368 422.807 242.49 422.807 253.742C422.807 264.994 431.929 274.116 443.181 274.116Z" fill="#E18A64"/>
<path d="M443.181 264.329C449.029 264.329 453.769 259.589 453.769 253.741C453.769 247.893 449.029 243.153 443.181 243.153C437.333 243.153 432.593 247.893 432.593 253.741C432.593 259.589 437.333 264.329 443.181 264.329Z" fill="#CB7456"/>
<path d="M507.698 150.247C472.498 150.247 443.985 186.759 443.985 231.723V285.505C443.985 330.505 472.501 366.999 507.698 366.999C542.895 366.999 571.409 330.488 571.409 285.505V231.723C571.41 186.722 542.877 150.247 507.698 150.247Z" fill="#E18A64"/>
<path d="M538.331 322.39C542.911 315.284 544.542 306.673 542.877 298.384C542.658 297.317 542.382 296.263 542.051 295.226L478.507 307.997C478.597 309.082 478.749 310.161 478.964 311.228C480.623 319.512 485.443 326.824 492.402 331.615C497.327 324.368 504.905 319.348 513.5 317.64C522.095 315.932 531.016 317.673 538.338 322.487L538.331 322.39Z" fill="#160204"/>
<path d="M525.115 285.324L490.337 292.277C486.795 292.944 483.625 294.898 481.437 297.763C479.249 300.628 478.199 304.2 478.487 307.793V307.885L542.036 295.105V294.983C540.9 291.571 538.545 288.698 535.421 286.915C532.298 285.133 528.627 284.565 525.111 285.322L525.115 285.324Z" fill="#FFF5E5"/>
<path d="M517.318 336.729C521.606 335.876 525.678 334.166 529.289 331.701C532.899 329.236 535.975 326.067 538.331 322.384C531.009 317.568 522.087 315.825 513.491 317.532C504.895 319.239 497.316 324.259 492.39 331.507C495.978 334.014 500.036 335.769 504.32 336.667C508.604 337.564 513.026 337.585 517.318 336.729Z" fill="#F60C5B"/>
<path d="M539.718 249.962C547.169 249.962 553.209 243.922 553.209 236.471C553.209 229.02 547.169 222.98 539.718 222.98C532.267 222.98 526.227 229.02 526.227 236.471C526.227 243.922 532.267 249.962 539.718 249.962Z" fill="#FFF5E5"/>
<path d="M539.299 252.026C544.209 252.026 548.19 248.045 548.19 243.135C548.19 238.225 544.209 234.244 539.299 234.244C534.389 234.244 530.408 238.225 530.408 243.135C530.408 248.045 534.389 252.026 539.299 252.026Z" fill="#160204"/>
<path d="M475.676 249.962C483.127 249.962 489.167 243.922 489.167 236.471C489.167 229.02 483.127 222.98 475.676 222.98C468.225 222.98 462.185 229.02 462.185 236.471C462.185 243.922 468.225 249.962 475.676 249.962Z" fill="#FFF5E5"/>
<path d="M477.867 253.814C482.777 253.814 486.758 249.833 486.758 244.923C486.758 240.013 482.777 236.032 477.867 236.032C472.957 236.032 468.976 240.013 468.976 244.923C468.976 249.833 472.957 253.814 477.867 253.814Z" fill="#160204"/>
<path d="M527.25 176.315C534.448 176.315 540.284 170.48 540.284 163.281C540.284 156.083 534.448 150.247 527.25 150.247C520.052 150.247 514.216 156.083 514.216 163.281C514.216 170.48 520.052 176.315 527.25 176.315Z" fill="#160204"/>
<path d="M507.698 184.478C518.496 184.478 527.25 175.724 527.25 164.926C527.25 154.128 518.496 145.374 507.698 145.374C496.9 145.374 488.146 154.128 488.146 164.926C488.146 175.724 496.9 184.478 507.698 184.478Z" fill="#160204"/>
<path d="M483.437 177.762C491.433 177.762 497.915 171.28 497.915 163.284C497.915 155.288 491.433 148.806 483.437 148.806C475.441 148.806 468.959 155.288 468.959 163.284C468.959 171.28 475.441 177.762 483.437 177.762Z" fill="#160204"/>
<path d="M463.883 184.277C470.074 184.277 475.092 179.259 475.092 173.068C475.092 166.877 470.074 161.859 463.883 161.859C457.692 161.859 452.674 166.877 452.674 173.068C452.674 179.259 457.692 184.277 463.883 184.277Z" fill="#160204"/>
<path d="M450.848 189.168C454.346 189.168 457.182 186.332 457.182 182.834C457.182 179.336 454.346 176.5 450.848 176.5C447.35 176.5 444.514 179.336 444.514 182.834C444.514 186.332 447.35 189.168 450.848 189.168Z" fill="#160204"/>
<path d="M502.349 173.798C513.147 173.798 521.901 165.044 521.901 154.246C521.901 143.448 513.147 134.694 502.349 134.694C491.551 134.694 482.797 143.448 482.797 154.246C482.797 165.044 491.551 173.798 502.349 173.798Z" fill="#160204"/>
<path d="M478.107 167.1C486.103 167.1 492.585 160.618 492.585 152.622C492.585 144.626 486.103 138.144 478.107 138.144C470.111 138.144 463.629 144.626 463.629 152.622C463.629 160.618 470.111 167.1 478.107 167.1Z" fill="#160204"/>
<path d="M532.306 181.647C543.104 181.647 551.858 172.893 551.858 162.095C551.858 151.297 543.104 142.543 532.306 142.543C521.508 142.543 512.754 151.297 512.754 162.095C512.754 172.893 521.508 181.647 532.306 181.647Z" fill="#160204"/>
<path d="M517.247 167.1C525.243 167.1 531.725 160.618 531.725 152.622C531.725 144.626 525.243 138.144 517.247 138.144C509.251 138.144 502.769 144.626 502.769 152.622C502.769 160.618 509.251 167.1 517.247 167.1Z" fill="#160204"/>
<path d="M458.553 173.597C464.744 173.597 469.762 168.579 469.762 162.388C469.762 156.197 464.744 151.179 458.553 151.179C452.362 151.179 447.344 156.197 447.344 162.388C447.344 168.579 452.362 173.597 458.553 173.597Z" fill="#160204"/>
<path d="M448.423 182.071C453.263 182.071 457.187 178.147 457.187 173.307C457.187 168.467 453.263 164.543 448.423 164.543C443.583 164.543 439.659 168.467 439.659 173.307C439.659 178.147 443.583 182.071 448.423 182.071Z" fill="#160204"/>
<path d="M562.284 182.071C567.124 182.071 571.048 178.147 571.048 173.307C571.048 168.467 567.124 164.543 562.284 164.543C557.444 164.543 553.52 168.467 553.52 173.307C553.52 178.147 557.444 182.071 562.284 182.071Z" fill="#160204"/>
<path d="M552.845 173.597C559.036 173.597 564.054 168.579 564.054 162.388C564.054 156.197 559.036 151.179 552.845 151.179C546.654 151.179 541.636 156.197 541.636 162.388C541.636 168.579 546.654 173.597 552.845 173.597Z" fill="#160204"/>
<path d="M543.352 174.947C546.85 174.947 549.686 172.111 549.686 168.613C549.686 165.115 546.85 162.279 543.352 162.279C539.854 162.279 537.018 165.115 537.018 168.613C537.018 172.111 539.854 174.947 543.352 174.947Z" fill="#160204"/>
<path d="M561.661 189.168C565.159 189.168 567.995 186.332 567.995 182.834C567.995 179.336 565.159 176.5 561.661 176.5C558.163 176.5 555.327 179.336 555.327 182.834C555.327 186.332 558.163 189.168 561.661 189.168Z" fill="#160204"/>
<path d="M547.807 184.275C555.348 184.275 561.462 178.161 561.462 170.62C561.462 163.079 555.348 156.965 547.807 156.965C540.266 156.965 534.152 163.079 534.152 170.62C534.152 178.161 540.266 184.275 547.807 184.275Z" fill="#160204"/>
<path d="M547.404 216.027H535.633C529.425 216.035 523.464 218.46 519.014 222.788C514.563 227.116 511.974 233.008 511.794 239.213H502.794C502.614 233.007 500.024 227.115 495.572 222.786C491.121 218.458 485.159 216.033 478.95 216.027H467.173C464.027 216.007 460.907 216.609 457.994 217.799C455.082 218.989 452.433 220.743 450.201 222.961C447.969 225.178 446.197 227.816 444.989 230.721C443.78 233.626 443.158 236.741 443.158 239.888C443.158 243.034 443.78 246.149 444.989 249.054C446.197 251.959 447.969 254.597 450.201 256.814C452.433 259.032 455.082 260.786 457.994 261.976C460.907 263.166 464.027 263.768 467.173 263.748H478.95C484.541 263.738 489.952 261.766 494.238 258.177C498.525 254.587 501.416 249.607 502.407 244.104H512.138C513.13 249.61 516.024 254.593 520.315 258.183C524.606 261.774 530.021 263.743 535.616 263.748H547.391C550.537 263.768 553.657 263.166 556.57 261.976C559.482 260.786 562.131 259.032 564.363 256.814C566.595 254.597 568.367 251.959 569.575 249.054C570.784 246.149 571.406 243.034 571.406 239.888C571.406 236.741 570.784 233.626 569.575 230.721C568.367 227.816 566.595 225.178 564.363 222.961C562.131 220.743 559.482 218.989 556.57 217.799C553.657 216.609 550.537 216.007 547.391 216.027H547.404ZM478.945 258.855H467.173C462.142 258.855 457.318 256.857 453.76 253.299C450.203 249.742 448.205 244.917 448.205 239.887C448.205 234.856 450.203 230.031 453.76 226.474C457.318 222.916 462.142 220.918 467.173 220.918H478.95C483.981 220.918 488.805 222.916 492.362 226.474C495.92 230.031 497.918 234.855 497.918 239.886C497.918 244.917 495.92 249.741 492.362 253.298C488.805 256.856 483.981 258.854 478.95 258.854L478.945 258.855ZM547.405 258.855H535.633C530.602 258.855 525.778 256.857 522.22 253.299C518.663 249.742 516.665 244.917 516.665 239.887C516.665 234.856 518.663 230.031 522.22 226.474C525.778 222.916 530.602 220.918 535.633 220.918H547.408C552.439 220.918 557.263 222.916 560.82 226.474C564.378 230.031 566.376 234.855 566.376 239.886C566.376 244.917 564.378 249.741 560.82 253.298C557.263 256.856 552.439 258.854 547.408 258.854L547.405 258.855Z" fill="#160204"/>
<path d="M105.391 546.751H918.056V578.639H105.391V546.751Z" fill="#FFF1F1"/>
<path d="M652.581 315.793H361.356C355.308 315.793 350.405 320.696 350.405 326.744V525.082C350.405 531.13 355.308 536.033 361.356 536.033H652.581C658.629 536.033 663.532 531.13 663.532 525.082V326.744C663.532 320.696 658.629 315.793 652.581 315.793Z" fill="#111111"/>
<path d="M365.21 535.25H648.891V547.172H365.21V535.25Z" fill="#222222"/>
<path d="M533 427C533 444.121 519.121 458 502 458C484.879 458 471 444.121 471 427C471 409.879 484.879 396 502 396C519.121 396 533 409.879 533 427Z" fill="#1D1C28"/>
<path d="M511.346 415.05C510.6 413.241 509.324 411.7 507.685 410.63C506.047 409.56 504.122 409.011 502.166 409.055L498.301 415.05H501.895C502.727 415.033 503.535 415.333 504.153 415.89C504.771 416.447 505.154 417.219 505.223 418.048C505.212 418.885 504.869 419.684 504.271 420.269C503.672 420.854 502.866 421.179 502.029 421.171H494.44L490.579 427.168V436.911C490.596 438.702 491.053 440.461 491.91 442.033C493.068 444.038 494.842 445.616 496.969 446.53V427.168H502.162C504.12 427.213 506.045 426.664 507.685 425.594C509.324 424.523 510.601 422.981 511.348 421.171C511.717 420.216 511.897 419.198 511.879 418.174C511.899 417.109 511.72 416.05 511.352 415.05H511.346Z" fill="white"/>
<path d="M233.146 461.495V446.232H133.378V512.538C133.378 521.413 136.903 529.924 143.179 536.199C149.454 542.475 157.965 546 166.84 546H199.704C205.307 546 210.82 544.59 215.736 541.901C220.652 539.211 224.812 535.329 227.834 530.61C228.987 530.71 230.134 530.788 231.323 530.788C235.904 530.951 240.472 530.205 244.763 528.592C249.054 526.98 252.983 524.533 256.323 521.394C259.663 518.255 262.348 514.484 264.222 510.301C266.097 506.118 267.124 501.605 267.245 497.023C267.366 492.441 266.577 487.88 264.925 483.604C263.273 479.328 260.79 475.422 257.62 472.111C254.45 468.8 250.655 466.151 246.455 464.315C242.255 462.479 237.732 461.493 233.149 461.415L233.146 461.495ZM231.082 524.113C232.45 520.407 233.149 516.488 233.146 512.538V468.725C239.287 470.487 244.661 474.255 248.41 479.428C252.159 484.601 254.067 490.881 253.829 497.266C253.592 503.65 251.222 509.771 247.099 514.651C242.976 519.531 237.337 522.89 231.082 524.19V524.113Z" fill="#111111"/>
<path opacity="0.8" d="M176.196 426.128C191.516 422.02 200.614 406.302 196.517 391.02C192.42 375.738 176.679 366.68 161.359 370.788C146.038 374.895 136.94 390.613 141.038 405.895C145.135 421.177 160.876 430.235 176.196 426.128Z" fill="white"/>
<path opacity="0.2" d="M214.671 423.932C219.648 422.598 222.601 417.482 221.267 412.504C219.932 407.527 214.816 404.574 209.839 405.909C204.862 407.243 201.909 412.36 203.243 417.337C204.578 422.314 209.694 425.267 214.671 423.932Z" fill="white"/>
<path opacity="0.2" d="M209.353 396.369C211.663 395.75 213.033 393.376 212.414 391.066C211.795 388.757 209.42 387.387 207.111 388.006C204.801 388.625 203.431 390.999 204.05 393.309C204.669 395.618 207.044 396.989 209.353 396.369Z" fill="white"/>
<path d="M501.242 273.305C502.399 273.305 503.337 272.367 503.337 271.21C503.337 270.053 502.399 269.115 501.242 269.115C500.085 269.115 499.147 270.053 499.147 271.21C499.147 272.367 500.085 273.305 501.242 273.305Z" fill="#CB7456"/>
<path d="M513.709 273.305C514.866 273.305 515.804 272.367 515.804 271.21C515.804 270.053 514.866 269.115 513.709 269.115C512.552 269.115 511.614 270.053 511.614 271.21C511.614 272.367 512.552 273.305 513.709 273.305Z" fill="#CB7456"/>
</g>
</g>
</g>
<defs>
<radialGradient id="paint0_radial_1_12" cx="0" cy="0" r="1" gradientUnits="userSpaceOnUse" gradientTransform="translate(460.344 357.047) scale(569.927 378.73)">
<stop stop-color="#0055FF"/>
<stop offset="1" stop-color="#3F35DE" stop-opacity="0.902"/>
</radialGradient>
<clipPath id="clip0_1_12">
<rect width="780" height="720" fill="white"/>
</clipPath>
</defs>
</svg>
