<svg xmlns="http://www.w3.org/2000/svg" xmlns:xlink="http://www.w3.org/1999/xlink" viewBox="0 0 1200 1000"><defs><style>.a,.w,.x{fill:#fff;}.b{fill:#3f35de;}.c{clip-path:url(#a);}.d{clip-path:url(#b);}.e{fill:url(#c);}.f{fill:#e18a64;}.g{fill:#0f2437;}.h{opacity:0.4;}.i{fill:#0089cf;}.j{fill:#002131;}.k{fill:#e14f28;}.l{fill:#22b573;}.m{fill:#00cdf3;}.n{fill:#fbb03b;}.o{fill:#fff1f1;}.p{fill:#2667ea;}.q{fill:#160204;}.r{fill:#cb7456;}.s{fill:#fff5e5;}.t{fill:#f60c5b;}.u{fill:#111;}.v{fill:#222;}.w{opacity:0.8;}.x{opacity:0.2;}</style><clipPath id="a"><path class="a" d="M0,0H1200V1000H0V0Z" transform="translate(87)"/></clipPath><clipPath id="b"><path class="b" d="M1525.042,127.174c-5.031,42.752-40.318,76.605-48.69,118.83a115.248,115.248,0,0,0-1.975,16.784c-1.2,24.25,3.6,49,1.123,73.291-4.612,45.552-32.3,81.149-67.449,112-26.59,23.276-57.454,43.753-85.842,63.567-72.277,50.489-140.064,114.231-169.751,197.247-19.787,55.357-21.3,115.516-35.827,172.483s-47.608,115.259-103.519,133.423c-60.01,19.5-126.133-13.011-187.888-.162-66.272,13.8-113.271,76.429-178.664,94.12-83.083,22.478-165.883-32.757-251.171-44.267-40.953-5.532-82.637-.839-123.807-4.382a311.18,311.18,0,0,1-129.839-41.265c-13.525-7.939-27.2-17.691-33.488-32.108-5.41-12.456-4.585-26.658-2.921-40.142,6.221-50.042,21.964-104.439-2.8-148.422-22.844-40.575-78.2-69.6-69.991-115.408,4.95-27.564,32-44.781,57.183-57.129,51.827-25.467,107.036-45.4,153.359-79.8,33.136-24.642,61.674-59.023,73.846-97.69a130.258,130.258,0,0,0,6.019-47.905c-1.7-25.562-10.549-54.262,4.869-74.725,6.681-8.872,16.92-14.323,27.212-18.489,38.816-15.689,81.934-16.6,122.292-27.74a168.7,168.7,0,0,0,39.56-16.514C541.5,248.52,561.312,227.516,566.1,200.1c2.8-16.068.311-33.609,8.331-47.811,13.525-24.074,40.264-34.137,70.127-37.41,36.964-4.057,78.823,2.286,106.847,5.41l2.8.3c35.99,3.746,71.682-4.22,106.752-16.23,37.87-12.862,74.887-30.363,110.9-42.806q5.072-1.758,10.117-3.368a518.011,518.011,0,0,1,80.5-18.732,526.277,526.277,0,0,1,116.314-4.49,516.028,516.028,0,0,1,58.671,7.628q8.548,1.623,17.068,3.476c33.028,7.074,65.88,15.716,99.57,16.23h7.276c40.182-.69,81.271-10.9,119.4,1.434,17.406,5.64,33.961,16.73,40.94,33.555C1525.6,106.657,1526.219,117.112,1525.042,127.174Z" transform="translate(347.069 -92.733)"/></clipPath><radialGradient id="c" cx="0.5" cy="0.5" r="0.5" gradientUnits="objectBoundingBox"><stop offset="0" stop-color="#05f"/><stop offset="1" stop-color="#3f35de" stop-opacity="0.902"/></radialGradient></defs><g class="c" transform="translate(-87)"><g class="d" transform="translate(-291.788 -62.857)"><g transform="translate(227.309 61.843)"><path class="e" d="M0,0H1493.852V992.7H0Z" transform="translate(0 0)"/><g transform="translate(281.737 204.944)"><g transform="translate(0 0)"><path class="f" d="M202.293,297.545c-12.9,13.208-13.015,35.57-.262,49.981s33.5,15.36,46.432,2.177l68.931-70.534-49.137-49.144Z" transform="translate(68.759 81.63)"/><path class="g" d="M343.36,211.685h0c-12.753-14.355-33.5-15.383-46.432-2.177l-79.513,81.348L266.556,340l76.563-78.356C356.065,248.46,356.184,226.089,343.36,211.685Z" transform="translate(119.53 20.8)"/><circle class="a" cx="7.585" cy="7.585" r="7.585" transform="translate(437.792 134.009)"/><g class="h" transform="translate(47.47 33.465)"><g transform="translate(55.553)"><rect class="i" width="49.889" height="135.618" transform="translate(243.959)"/><rect class="a" width="32.118" height="74.437" transform="translate(252.846 10.771)"/><ellipse class="a" cx="7.868" cy="7.868" rx="7.868" ry="7.868" transform="translate(261.037 99.232)"/><path class="j" d="M0,0H49.889V135.618H0Z" transform="translate(195.164)"/><rect class="a" width="32.118" height="74.437" transform="translate(204.049 10.771)"/><ellipse class="a" cx="7.868" cy="7.868" rx="7.868" ry="7.868" transform="translate(212.264 99.232)"/><rect class="k" width="49.889" height="135.618" transform="translate(341.554)"/><rect class="a" width="32.118" height="74.437" transform="translate(350.441 10.771)"/><rect class="l" width="49.889" height="135.618" transform="translate(292.756)"/><rect class="a" width="32.118" height="74.437" transform="translate(301.643 10.771)"/><ellipse class="a" cx="7.868" cy="7.868" rx="7.868" ry="7.868" transform="translate(309.833 99.232)"/><rect class="m" width="49.889" height="135.618" transform="translate(48.797)"/><rect class="a" width="32.118" height="74.437" transform="translate(57.682 10.771)"/><ellipse class="a" cx="7.868" cy="7.868" rx="7.868" ry="7.868" transform="translate(65.874 99.232)"/><rect class="j" width="49.889" height="135.618"/><rect class="a" width="32.118" height="74.437" transform="translate(8.887 10.771)"/><ellipse class="a" cx="7.868" cy="7.868" rx="7.868" ry="7.868" transform="translate(17.077 99.232)"/><rect class="n" width="49.889" height="135.618" transform="translate(146.392)"/><rect class="a" width="32.118" height="74.437" transform="translate(155.276 10.771)"/><ellipse class="a" cx="7.868" cy="7.868" rx="7.868" ry="7.868" transform="translate(163.468 99.232)"/><rect class="k" width="49.889" height="135.618" transform="translate(97.595)"/><rect class="a" width="32.118" height="74.437" transform="translate(106.479 10.771)"/><ellipse class="a" cx="7.868" cy="7.868" rx="7.868" ry="7.868" transform="translate(114.672 99.232)"/></g><g transform="translate(445.751)"><rect class="i" width="49.889" height="135.618" transform="translate(243.959)"/><rect class="a" width="32.118" height="74.437" transform="translate(252.846 10.771)"/><ellipse class="a" cx="7.868" cy="7.868" rx="7.868" ry="7.868" transform="translate(261.037 99.232)"/><path class="j" d="M0,0H49.889V135.618H0Z" transform="translate(195.164)"/><rect class="a" width="32.118" height="74.437" transform="translate(204.049 10.771)"/><ellipse class="a" cx="7.868" cy="7.868" rx="7.868" ry="7.868" transform="translate(212.264 99.232)"/><rect class="k" width="49.889" height="135.618" transform="translate(341.554)"/><rect class="a" width="32.118" height="74.437" transform="translate(350.441 10.771)"/><rect class="l" width="49.889" height="135.618" transform="translate(292.756)"/><rect class="a" width="32.118" height="74.437" transform="translate(301.643 10.771)"/><ellipse class="a" cx="7.868" cy="7.868" rx="7.868" ry="7.868" transform="translate(309.833 99.232)"/><ellipse class="a" cx="7.868" cy="7.868" rx="7.868" ry="7.868" transform="translate(358.778 99.232)"/><rect class="m" width="49.889" height="135.618" transform="translate(48.797)"/><rect class="a" width="32.118" height="74.437" transform="translate(57.682 10.771)"/><ellipse class="a" cx="7.868" cy="7.868" rx="7.868" ry="7.868" transform="translate(65.874 99.232)"/><rect class="j" width="49.889" height="135.618"/><rect class="a" width="32.118" height="74.437" transform="translate(8.887 10.771)"/><ellipse class="a" cx="7.868" cy="7.868" rx="7.868" ry="7.868" transform="translate(17.077 99.232)"/><rect class="n" width="49.889" height="135.618" transform="translate(146.392)"/><rect class="a" width="32.118" height="74.437" transform="translate(155.276 10.771)"/><ellipse class="a" cx="7.868" cy="7.868" rx="7.868" ry="7.868" transform="translate(163.468 99.232)"/><rect class="k" width="49.889" height="135.618" transform="translate(97.595)"/><rect class="a" width="32.118" height="74.437" transform="translate(106.479 10.771)"/><ellipse class="a" cx="7.868" cy="7.868" rx="7.868" ry="7.868" transform="translate(114.672 99.232)"/></g><rect class="o" width="836.295" height="41.463" transform="translate(0 135.642)"/></g><path class="p" d="M500.028,408.355h0c-12.753,14.355-33.5,15.36-46.432,2.178L308.1,261.642c-12.9-13.184-13.015-35.553-.262-49.956h0c12.753-14.355,33.5-15.383,46.432-2.177L499.765,358.375C512.656,371.585,512.773,393.944,500.028,408.355Z" transform="translate(284.738 20.802)"/><path class="f" d="M292.686,407.668h0c-9.139-18.447-2.8-41.439,14.163-51.369L482.173,253.587c16.964-9.953,38.106-3.063,47.253,15.383h0c9.139,18.422,2.8,41.415-14.14,51.345L339.938,423.053C322.976,432.981,301.824,426.09,292.686,407.668Z" transform="translate(264.64 120.42)"/><path class="f" d="M431.953,407.669h0c9.139-18.447,2.8-41.439-14.139-51.369L242.469,253.586c-16.964-9.953-38.106-3.063-47.252,15.383h0c-9.139,18.422-2.8,41.415,14.163,51.345L384.705,423.051C401.678,432.982,422.833,426.091,431.953,407.669Z" transform="translate(65.686 120.419)"/><path class="f" d="M443.024,297.545c12.872,13.208,12.992,35.57.238,49.981s-33.5,15.36-46.432,2.177L327.916,279.17l49.122-49.144Z" transform="translate(345.089 81.63)"/><path class="g" d="M309.024,211.685h0c12.753-14.355,33.5-15.383,46.432-2.177l79.506,81.347L385.842,340l-76.563-78.357C296.39,248.46,296.27,226.089,309.024,211.685Z" transform="translate(287.157 20.8)"/><ellipse class="q" cx="92.568" cy="96.109" rx="92.568" ry="96.109" transform="translate(434.92 9.714)"/><circle class="f" cx="26.701" cy="26.701" r="26.701" transform="translate(584.001 129.318)"/><circle class="r" cx="13.877" cy="13.877" r="13.877" transform="translate(596.826 142.143)"/><circle class="f" cx="26.701" cy="26.701" r="26.701" transform="translate(415.995 129.318)"/><circle class="r" cx="13.877" cy="13.877" r="13.877" transform="translate(428.819 142.143)"/><path class="f" d="M336.034,134.252c-46.128,0-83.5,47.851-83.5,106.779v70.485c0,58.977,37.372,106.8,83.5,106.8s83.5-47.85,83.5-106.8V241.032C419.533,182.055,382.139,134.252,336.034,134.252Z" transform="translate(191.216 -113.868)"/><path class="q" d="M345.815,232.329a42.592,42.592,0,0,0,5.958-31.462,40.414,40.414,0,0,0-1.082-4.139l-83.28,16.738a36.774,36.774,0,0,0,.6,4.235,42.59,42.59,0,0,0,17.611,26.718,43.737,43.737,0,0,1,60.2-11.963Z" transform="translate(221.582 13.659)"/><path class="s" d="M328.552,192.749l-45.579,9.116A19.14,19.14,0,0,0,267.442,222.2v.12l83.285-16.749v-.16a19.141,19.141,0,0,0-22.181-12.662Z" transform="translate(221.523 4.662)"/><path class="t" d="M306.061,232.065a42.54,42.54,0,0,0,27.539-18.8,43.737,43.737,0,0,0-60.209,11.956,42.517,42.517,0,0,0,32.669,6.844Z" transform="translate(233.797 32.72)"/><circle class="s" cx="17.681" cy="17.681" r="17.681" transform="translate(551.533 115.704)"/><circle class="q" cx="11.652" cy="11.652" r="11.652" transform="translate(557.012 130.467)"/><circle class="s" cx="17.681" cy="17.681" r="17.681" transform="translate(467.602 115.704)"/><circle class="q" cx="11.652" cy="11.652" r="11.652" transform="translate(476.503 132.81)"/><circle class="q" cx="17.082" cy="17.082" r="17.082" transform="translate(535.792 20.383)"/><circle class="q" cx="25.624" cy="25.624" r="25.624" transform="translate(501.625 13.997)"/><circle class="q" cx="18.974" cy="18.974" r="18.974" transform="translate(476.479 18.495)"/><circle class="q" cx="14.691" cy="14.691" r="14.691" transform="translate(455.137 35.602)"/><circle class="q" cx="8.302" cy="8.302" r="8.302" transform="translate(444.443 54.789)"/><circle class="q" cx="25.624" cy="25.624" r="25.624" transform="translate(494.615 0)"/><circle class="q" cx="18.974" cy="18.974" r="18.974" transform="translate(469.494 4.521)"/><circle class="q" cx="25.624" cy="25.624" r="25.624" transform="translate(533.877 10.287)"/><circle class="q" cx="18.974" cy="18.974" r="18.974" transform="translate(520.79 4.521)"/><circle class="q" cx="14.691" cy="14.691" r="14.691" transform="translate(448.152 21.605)"/><circle class="q" cx="11.485" cy="11.485" r="11.485" transform="translate(438.08 39.119)"/><circle class="q" cx="11.485" cy="11.485" r="11.485" transform="translate(587.302 39.119)"/><circle class="q" cx="14.691" cy="14.691" r="14.691" transform="translate(571.727 21.605)"/><circle class="q" cx="8.302" cy="8.302" r="8.302" transform="translate(565.675 36.152)"/><circle class="q" cx="8.302" cy="8.302" r="8.302" transform="translate(589.671 54.789)"/><circle class="q" cx="17.896" cy="17.896" r="17.896" transform="translate(561.919 29.188)"/><path class="q" d="M388.664,162.6H373.238A31.294,31.294,0,0,0,342,192.983H330.2A31.294,31.294,0,0,0,298.951,162.6H283.516a31.271,31.271,0,1,0,0,62.542h15.435a31.294,31.294,0,0,0,30.742-25.745h12.753a31.294,31.294,0,0,0,30.769,25.745h15.432a31.271,31.271,0,1,0,0-62.542Zm-89.72,56.128H283.516a24.859,24.859,0,0,1,0-49.719h15.435a24.859,24.859,0,1,1,0,49.718Zm89.722,0H373.238a24.859,24.859,0,0,1,0-49.719H388.67a24.859,24.859,0,1,1,0,49.718Z" transform="translate(190.623 -56.009)"/><path class="o" d="M0,0H1065.051V41.792H0Z" transform="translate(0 540.028)"/><rect class="u" width="410.374" height="288.639" rx="10.951" transform="translate(321.107 237.342)"/><path class="v" d="M0,0H371.782V15.624H0Z" transform="translate(340.51 524.954)"/><g transform="translate(474.848 334.64)"><path class="a" d="M315.806,252.9a24.763,24.763,0,0,0-23.447-15.314L282.477,252.9h9.188a8.35,8.35,0,0,1,8.485,7.656,8.064,8.064,0,0,1-8.166,7.968H272.612l-9.853,15.314v24.886a28.11,28.11,0,0,0,3.4,13.088A27.539,27.539,0,0,0,279.076,333.3V283.839H292.33a24.716,24.716,0,0,0,23.447-15.313,19.9,19.9,0,0,0,1.365-7.656,22.131,22.131,0,0,0-1.34-7.968Z" transform="translate(-262.759 -237.583)"/><g transform="translate(35.36 0.002)"><path class="a" d="M275.757,317.978A24.738,24.738,0,0,0,299.2,333.291l9.857-15.313h-9.179a8.35,8.35,0,0,1-8.486-7.657,8.063,8.063,0,0,1,8.166-7.967h19.373l9.857-15.313V262.156a27.827,27.827,0,0,0-3.4-13.088,27.419,27.419,0,0,0-12.934-11.484v49.454H299.206a24.74,24.74,0,0,0-23.447,15.312,20.363,20.363,0,0,0-1.365,7.656,20.628,20.628,0,0,0,1.362,7.968Z" transform="translate(-274.387 -237.584)"/></g></g><path class="u" d="M249.436,281.8v-20H118.683v86.9a43.855,43.855,0,0,0,43.855,43.855h43.07a43.781,43.781,0,0,0,36.866-20.169c1.51.133,3.017.234,4.573.234a45.475,45.475,0,1,0,2.393-90.918Zm-2.705,82.065a43.707,43.707,0,0,0,2.7-15.17v-57.42a37.464,37.464,0,0,1-2.705,72.691Z" transform="translate(-82.005 146.491)"/><ellipse class="w" cx="37.634" cy="37.54" rx="37.634" ry="37.54" transform="matrix(0.966, -0.259, 0.259, 0.966, 36.995, 319.163)"/><circle class="x" cx="12.227" cy="12.227" r="12.227" transform="matrix(0.966, -0.259, 0.259, 0.966, 125.075, 358.611)"/><circle class="x" cx="5.674" cy="5.674" r="5.674" transform="matrix(0.966, -0.259, 0.259, 0.966, 127.831, 333.451)"/><g transform="translate(516.043 176.167)"><circle class="r" cx="2.746" cy="2.746" r="2.746" transform="translate(0 0)"/><circle class="r" cx="2.746" cy="2.746" r="2.746" transform="translate(16.339 0)"/></g></g></g></g></g></g></svg>