<svg xmlns="http://www.w3.org/2000/svg" xmlns:xlink="http://www.w3.org/1999/xlink" viewBox="0 0 780 720"><defs><style>.a,.w,.x{fill:#fff;}.b{fill:#3f35de;}.c{clip-path:url(#a);}.d{clip-path:url(#b);}.e{fill:url(#c);}.f{fill:#e18a64;}.g{fill:#0f2437;}.h{opacity:0.4;}.i{fill:#0089cf;}.j{fill:#002131;}.k{fill:#e14f28;}.l{fill:#22b573;}.m{fill:#00cdf3;}.n{fill:#fbb03b;}.o{fill:#fff1f1;}.p{fill:#2667ea;}.q{fill:#160204;}.r{fill:#cb7456;}.s{fill:#fff5e5;}.t{fill:#f60c5b;}.u{fill:#111;}.v{fill:#222;}.w{opacity:0.8;}.x{opacity:0.2;}</style><clipPath id="a"><path class="a" d="M0,0H780V720H0V0Z" transform="translate(507)"/></clipPath><clipPath id="b"><path class="b" d="M1171.169,105c-3.839,32.621-30.764,58.452-37.152,90.671a87.941,87.941,0,0,0-1.507,12.807c-.918,18.5,2.745,37.389.857,55.924-3.519,34.757-24.644,61.919-51.465,85.459-20.289,17.761-43.839,33.385-65.5,48.5-55.149,38.524-106.873,87.162-129.525,150.505-15.1,42.239-16.254,88.142-27.337,131.61s-36.326,87.946-78.988,101.806c-45.789,14.881-96.243-9.928-143.364-.124-50.568,10.526-86.429,58.318-136.326,71.816-63.4,17.152-126.574-24.995-191.651-33.777-31.249-4.221-63.055-.64-94.468-3.344a237.44,237.44,0,0,1-99.071-31.486c-10.32-6.058-20.753-13.5-25.552-24.5-4.128-9.5-3.5-20.341-2.229-30.629,4.747-38.184,16.76-79.69-2.136-113.251-17.43-30.96-59.67-53.106-53.405-88.06,3.777-21.032,24.417-34.169,43.632-43.591C115.526,465.905,157.652,450.694,193,424.45c25.284-18.8,47.059-45.036,56.347-74.541a99.39,99.39,0,0,0,4.592-36.553c-1.3-19.5-8.05-41.4,3.715-57.017,5.1-6.77,12.91-10.929,20.764-14.107,29.618-11.971,62.518-12.663,93.313-21.166a128.721,128.721,0,0,0,30.186-12.6c18.782-10.877,33.9-26.9,37.554-47.822,2.136-12.26.237-25.645,6.357-36.481,10.32-18.369,30.722-26.047,53.509-28.545,28.2-3.1,60.144,1.744,81.527,4.128l2.136.227c27.461,2.859,54.7-3.22,81.455-12.384,28.9-9.814,57.141-23.168,84.623-32.662q3.87-1.342,7.719-2.57a395.258,395.258,0,0,1,61.424-14.293,401.565,401.565,0,0,1,88.751-3.426,393.743,393.743,0,0,1,44.768,5.82q6.522,1.238,13.024,2.652c25.2,5.4,50.268,11.992,75.975,12.384h5.552c30.66-.526,62.012-8.318,91.1,1.094,13.282,4.3,25.913,12.766,31.238,25.6C1171.592,89.342,1172.067,97.32,1171.169,105Z" transform="translate(347.069 -92.733)"/></clipPath><radialGradient id="c" cx="0.5" cy="0.5" r="0.5" gradientUnits="objectBoundingBox"><stop offset="0" stop-color="#05f"/><stop offset="1" stop-color="#3f35de" stop-opacity="0.902"/></radialGradient></defs><g class="c" transform="translate(-507)"><g class="d" transform="translate(134.212 -54.857)"><g transform="translate(263.205 33.173)"><path class="e" d="M0,0H1139.854V757.461H0Z" transform="translate(0 0)"/><g transform="translate(63.195 156.378)"><g transform="translate(0 0)"><path class="f" d="M199.983,281.545c-9.84,10.078-9.931,27.141-.2,38.137s25.558,11.72,35.429,1.661l52.6-53.819-37.493-37.5Z" transform="translate(158.617 7.777)"/><path class="g" d="M313.515,208.969h0c-9.731-10.954-25.558-11.738-35.429-1.661l-60.671,62.071,37.5,37.5,58.42-59.788C323.209,237.03,323.3,219.96,313.515,208.969Z" transform="translate(191.463 -31.576)"/><circle class="a" cx="5.787" cy="5.787" r="5.787" transform="translate(485.827 102.253)"/><g class="h"><g transform="translate(230.388 25.535)"><rect class="i" width="38.067" height="103.481" transform="translate(186.148)"/><rect class="a" width="24.507" height="56.798" transform="translate(192.929 8.219)"/><ellipse class="a" cx="6.004" cy="6.004" rx="6.004" ry="6.004" transform="translate(199.179 75.717)"/><path class="j" d="M0,0H38.067V103.481H0Z" transform="translate(148.916)"/><rect class="a" width="24.507" height="56.798" transform="translate(155.695 8.219)"/><ellipse class="a" cx="6.004" cy="6.004" rx="6.004" ry="6.004" transform="translate(161.963 75.717)"/><rect class="k" width="38.067" height="103.481" transform="translate(260.616)"/><rect class="a" width="24.507" height="56.798" transform="translate(267.397 8.219)"/><rect class="l" width="38.067" height="103.481" transform="translate(223.382)"/><rect class="a" width="24.507" height="56.798" transform="translate(230.163 8.219)"/><ellipse class="a" cx="6.004" cy="6.004" rx="6.004" ry="6.004" transform="translate(236.412 75.717)"/><rect class="m" width="38.067" height="103.481" transform="translate(37.234)"/><rect class="a" width="24.507" height="56.798" transform="translate(44.013 8.219)"/><ellipse class="a" cx="6.004" cy="6.004" rx="6.004" ry="6.004" transform="translate(50.264 75.717)"/><rect class="j" width="38.067" height="103.481"/><rect class="a" width="24.507" height="56.798" transform="translate(6.781 8.219)"/><ellipse class="a" cx="6.004" cy="6.004" rx="6.004" ry="6.004" transform="translate(13.03 75.717)"/><rect class="n" width="38.067" height="103.481" transform="translate(111.702)"/><rect class="a" width="24.507" height="56.798" transform="translate(118.48 8.219)"/><ellipse class="a" cx="6.004" cy="6.004" rx="6.004" ry="6.004" transform="translate(124.731 75.717)"/><rect class="k" width="38.067" height="103.481" transform="translate(74.468)"/><rect class="a" width="24.507" height="56.798" transform="translate(81.247 8.219)"/><ellipse class="a" cx="6.004" cy="6.004" rx="6.004" ry="6.004" transform="translate(87.498 75.717)"/></g><g transform="translate(528.122 25.535)"><rect class="i" width="38.067" height="103.481" transform="translate(186.148)"/><rect class="a" width="24.507" height="56.798" transform="translate(192.929 8.219)"/><ellipse class="a" cx="6.004" cy="6.004" rx="6.004" ry="6.004" transform="translate(199.179 75.717)"/><path class="j" d="M0,0H38.067V103.481H0Z" transform="translate(148.916)"/><rect class="a" width="24.507" height="56.798" transform="translate(155.695 8.219)"/><ellipse class="a" cx="6.004" cy="6.004" rx="6.004" ry="6.004" transform="translate(161.963 75.717)"/><rect class="k" width="38.067" height="103.481" transform="translate(260.616)"/><rect class="a" width="24.507" height="56.798" transform="translate(267.397 8.219)"/><rect class="l" width="38.067" height="103.481" transform="translate(223.382)"/><rect class="a" width="24.507" height="56.798" transform="translate(230.163 8.219)"/><ellipse class="a" cx="6.004" cy="6.004" rx="6.004" ry="6.004" transform="translate(236.412 75.717)"/><ellipse class="a" cx="6.004" cy="6.004" rx="6.004" ry="6.004" transform="translate(273.758 75.717)"/><rect class="m" width="38.067" height="103.481" transform="translate(37.234)"/><rect class="a" width="24.507" height="56.798" transform="translate(44.013 8.219)"/><ellipse class="a" cx="6.004" cy="6.004" rx="6.004" ry="6.004" transform="translate(50.264 75.717)"/><rect class="j" width="38.067" height="103.481"/><rect class="a" width="24.507" height="56.798" transform="translate(6.781 8.219)"/><ellipse class="a" cx="6.004" cy="6.004" rx="6.004" ry="6.004" transform="translate(13.03 75.717)"/><rect class="n" width="38.067" height="103.481" transform="translate(111.702)"/><rect class="a" width="24.507" height="56.798" transform="translate(118.48 8.219)"/><ellipse class="a" cx="6.004" cy="6.004" rx="6.004" ry="6.004" transform="translate(124.731 75.717)"/><rect class="k" width="38.067" height="103.481" transform="translate(74.468)"/><rect class="a" width="24.507" height="56.798" transform="translate(81.247 8.219)"/><ellipse class="a" cx="6.004" cy="6.004" rx="6.004" ry="6.004" transform="translate(87.498 75.717)"/></g><rect class="o" width="638.118" height="31.638" transform="translate(188 129.034)"/></g><path class="p" d="M452.237,359.035h0c-9.731,10.954-25.558,11.72-35.429,1.661L305.793,247.089c-9.84-10.06-9.931-27.128-.2-38.118h0c9.731-10.954,25.558-11.738,35.429-1.661L452.037,320.9C461.873,330.978,461.962,348.039,452.237,359.035Z" transform="translate(298.342 -31.575)"/><path class="f" d="M291.695,370.075h0c-6.973-14.075-2.135-31.619,10.807-39.2L436.28,252.507c12.944-7.594,29.076-2.337,36.056,11.738h0c6.973,14.057,2.135,31.6-10.79,39.177l-133.8,78.392C314.807,389.39,298.668,384.132,291.695,370.075Z" transform="translate(285.34 32.871)"/><path class="f" d="M374.863,370.076h0c6.973-14.075,2.135-31.619-10.788-39.2L230.281,252.506c-12.944-7.594-29.076-2.337-36.055,11.738h0c-6.973,14.057-2.135,31.6,10.807,39.177l133.778,78.391C351.762,389.39,367.9,384.132,374.863,370.076Z" transform="translate(156.629 32.871)"/><path class="f" d="M415.746,281.545c9.822,10.078,9.913,27.141.182,38.137S390.37,331.4,380.5,321.344l-52.583-53.819,37.482-37.5Z" transform="translate(337.385 7.777)"/><path class="g" d="M306.775,208.969h0c9.731-10.954,25.558-11.738,35.429-1.661l60.666,62.07-37.48,37.5-58.42-59.788C297.135,237.03,297.043,219.96,306.775,208.969Z" transform="translate(299.907 -31.576)"/><ellipse class="q" cx="70.632" cy="73.334" rx="70.632" ry="73.334" transform="translate(483.636 7.412)"/><circle class="f" cx="20.374" cy="20.374" r="20.374" transform="translate(597.389 98.674)"/><circle class="r" cx="10.588" cy="10.588" r="10.588" transform="translate(607.174 108.459)"/><circle class="f" cx="20.374" cy="20.374" r="20.374" transform="translate(469.195 98.674)"/><circle class="r" cx="10.588" cy="10.588" r="10.588" transform="translate(478.981 108.459)"/><path class="f" d="M316.247,134.252c-35.2,0-63.713,36.512-63.713,81.476v53.782c0,45,28.516,81.494,63.713,81.494s63.711-36.511,63.711-81.494V215.728C379.959,170.727,351.426,134.252,316.247,134.252Z" transform="translate(237.839 -118.699)"/><path class="q" d="M327.235,223.893a32.5,32.5,0,0,0,4.546-24.006,30.839,30.839,0,0,0-.826-3.158L267.411,209.5a28.068,28.068,0,0,0,.457,3.231,32.5,32.5,0,0,0,13.438,20.387,33.373,33.373,0,0,1,45.936-9.128Z" transform="translate(257.484 -36.197)"/><path class="s" d="M314.056,192.647,279.278,199.6a14.6,14.6,0,0,0-11.85,15.516v.092l63.549-12.78v-.122a14.6,14.6,0,0,0-16.925-9.661Z" transform="translate(257.447 -42.017)"/><path class="t" d="M298.319,225.9a32.459,32.459,0,0,0,21.013-14.345,33.372,33.372,0,0,0-45.941,9.123,32.442,32.442,0,0,0,24.928,5.222Z" transform="translate(265.387 -23.865)"/><circle class="s" cx="13.491" cy="13.491" r="13.491" transform="translate(572.615 88.286)"/><circle class="q" cx="8.891" cy="8.891" r="8.891" transform="translate(576.796 99.55)"/><circle class="s" cx="13.491" cy="13.491" r="13.491" transform="translate(508.573 88.286)"/><circle class="q" cx="8.891" cy="8.891" r="8.891" transform="translate(515.364 101.338)"/><circle class="q" cx="13.034" cy="13.034" r="13.034" transform="translate(560.604 15.553)"/><circle class="q" cx="19.552" cy="19.552" r="19.552" transform="translate(534.534 10.68)"/><circle class="q" cx="14.478" cy="14.478" r="14.478" transform="translate(515.347 14.112)"/><circle class="q" cx="11.209" cy="11.209" r="11.209" transform="translate(499.062 27.165)"/><circle class="q" cx="6.334" cy="6.334" r="6.334" transform="translate(490.902 41.806)"/><circle class="q" cx="19.552" cy="19.552" r="19.552" transform="translate(529.185 0)"/><circle class="q" cx="14.478" cy="14.478" r="14.478" transform="translate(510.017 3.45)"/><circle class="q" cx="19.552" cy="19.552" r="19.552" transform="translate(559.142 7.849)"/><circle class="q" cx="14.478" cy="14.478" r="14.478" transform="translate(549.157 3.45)"/><circle class="q" cx="11.209" cy="11.209" r="11.209" transform="translate(493.732 16.485)"/><circle class="q" cx="8.764" cy="8.764" r="8.764" transform="translate(486.047 29.849)"/><circle class="q" cx="8.764" cy="8.764" r="8.764" transform="translate(599.908 29.849)"/><circle class="q" cx="11.209" cy="11.209" r="11.209" transform="translate(588.024 16.485)"/><circle class="q" cx="6.334" cy="6.334" r="6.334" transform="translate(583.406 27.585)"/><circle class="q" cx="6.334" cy="6.334" r="6.334" transform="translate(601.715 41.806)"/><circle class="q" cx="13.655" cy="13.655" r="13.655" transform="translate(580.54 22.271)"/><path class="q" d="M356.337,162.6H344.566a23.878,23.878,0,0,0-23.839,23.186h-9A23.878,23.878,0,0,0,287.883,162.6H276.106a23.861,23.861,0,1,0,0,47.721h11.777a23.878,23.878,0,0,0,23.457-19.644h9.731a23.878,23.878,0,0,0,23.478,19.644h11.775a23.861,23.861,0,1,0,0-47.721Zm-68.459,42.828H276.106a18.968,18.968,0,0,1,0-37.937h11.777a18.968,18.968,0,1,1,0,37.936Zm68.46,0H344.566a18.968,18.968,0,1,1,0-37.937h11.775a18.968,18.968,0,1,1,0,37.936Z" transform="translate(237.455 -81.267)"/><path class="o" d="M0,0H812.665V31.888H0Z" transform="translate(151.779 412.057)"/><rect class="u" width="313.127" height="220.24" rx="10.951" transform="translate(396.793 181.099)"/><path class="v" d="M0,0H283.681V11.922H0Z" transform="translate(411.598 400.556)"/><g transform="translate(514.102 255.34)"><path class="a" d="M303.236,249.273a18.9,18.9,0,0,0-17.891-11.685L277.8,249.271h7.01a6.371,6.371,0,0,1,6.475,5.842,6.153,6.153,0,0,1-6.231,6.079H270.277l-7.518,11.685v18.989a21.449,21.449,0,0,0,2.592,9.987,21.014,21.014,0,0,0,9.858,8.764V272.878h10.113a18.859,18.859,0,0,0,17.891-11.684,15.187,15.187,0,0,0,1.041-5.842,16.887,16.887,0,0,0-1.023-6.079Z" transform="translate(-262.759 -237.583)"/><g transform="translate(26.98 0.002)"><path class="a" d="M275.432,298.927a18.876,18.876,0,0,0,17.891,11.684l7.521-11.684h-7a6.371,6.371,0,0,1-6.475-5.842,6.153,6.153,0,0,1,6.231-6.079h14.782l7.521-11.684V256.333a21.233,21.233,0,0,0-2.592-9.987,20.921,20.921,0,0,0-9.869-8.763v37.735H293.325A18.877,18.877,0,0,0,275.434,287a15.537,15.537,0,0,0-1.041,5.842,15.739,15.739,0,0,0,1.039,6.079Z" transform="translate(-274.387 -237.584)"/></g></g><path class="u" d="M218.451,277.063V261.8H118.683v66.306a33.462,33.462,0,0,0,33.462,33.462h32.864a33.406,33.406,0,0,0,28.13-15.39c1.153.1,2.3.178,3.489.178a34.7,34.7,0,1,0,1.826-69.373Zm-2.064,62.618a33.351,33.351,0,0,0,2.064-11.575V284.293a28.586,28.586,0,0,1-2.064,55.465Z" transform="translate(61.083 49.738)"/><ellipse class="w" cx="28.716" cy="28.644" rx="28.716" ry="28.644" transform="matrix(0.966, -0.259, 0.259, 0.966, 180.007, 243.531)"/><circle class="x" cx="9.329" cy="9.329" r="9.329" transform="matrix(0.966, -0.259, 0.259, 0.966, 247.215, 273.631)"/><circle class="x" cx="4.329" cy="4.329" r="4.329" transform="matrix(0.966, -0.259, 0.259, 0.966, 249.317, 254.433)"/><g transform="translate(545.535 134.421)"><circle class="r" cx="2.095" cy="2.095" r="2.095" transform="translate(0 0)"/><circle class="r" cx="2.095" cy="2.095" r="2.095" transform="translate(12.467 0)"/></g></g></g></g></g></g></svg>