<svg xmlns="http://www.w3.org/2000/svg" xmlns:xlink="http://www.w3.org/1999/xlink" viewBox="0 0 132 132"><defs><style>.a{fill:#fff;}.b{fill:#222;}.c{clip-path:url(#a);}.d{fill:#8f9ed1;}.e{fill:#f2f2f2;}</style><clipPath id="a"><rect class="a" width="80" height="80"/></clipPath></defs><path class="b" d="M66,0A66,66,0,1,1,0,66,66,66,0,0,1,66,0Z"/><g class="c" transform="translate(25.787 26.332)"><path class="d" d="M80,40A40,40,0,0,1,5.331,59.963,40.012,40.012,0,1,1,80,40Z"/><g transform="translate(1.411 19.292)"><path class="e" d="M21.75,55.7H7.019l-4.2,22.713a39.688,39.688,0,0,0,3.92,9.4H8.108l1.626-8.8h8.095c9.856,0,12.506-8.849,13.141-13.2A9.017,9.017,0,0,0,21.75,55.7Zm2.137,10.854c-.361,2.464-2.181,7.481-7.768,7.481H10.655L13.1,60.815H18.66C24.082,60.815,24.248,64.09,23.887,66.553Z" transform="translate(-2.821 -47.142)"/><path class="e" d="M131.734,56.731a9.637,9.637,0,0,0-4.469-1.032H112.534L106.6,87.812h7.024l1.626-8.8h8.095a11.667,11.667,0,0,0,9.329-4.077,40.3,40.3,0,0,0-.939-18.208ZM129.4,66.553c-.361,2.464-2.181,7.481-7.77,7.481H116.17l2.443-13.22h5.563C129.6,60.815,129.763,64.09,129.4,66.553Z" transform="translate(-54.71 -47.142)"/><path class="e" d="M76.778,47.248H68.247l1.6-8.664H62.854L56.919,70.7h6.995l3.413-18.467H71.8c2.967,0,4.981.636,4.557,3.391s-2.861,14.943-2.861,14.943h7.1S83.348,57,83.772,53.183,80.7,47.248,76.778,47.248Z" transform="translate(-29.87 -38.584)"/></g></g></svg>