<svg xmlns="http://www.w3.org/2000/svg" xmlns:xlink="http://www.w3.org/1999/xlink" viewBox="0 0 1090 1000"><defs><style>.a{fill:none;}.b{fill:#ff9b00;}.c{clip-path:url(#a);}.d{clip-path:url(#b);}.e{fill:url(#c);}.f{opacity:0.4;}.g{fill:#22b573;}.h{fill:#002131;}.i{fill:#e14f28;}.j{fill:#fbb03b;}.k{fill:#0089cf;}.l{fill:#f8c09d;}.m{fill:#0f2437;}.n{fill:#cb7456;}.o{fill:#e18a64;}.p{fill:#2667ea;}.q{fill:#417aed;}.r{fill:#131313;}.s{fill:#160204;}.t{fill:#fff5e5;}.u{fill:#f60c5b;}</style><clipPath id="a"><rect class="a" width="1090" height="1000" transform="translate(0 2668)"/></clipPath><clipPath id="b"><path class="b" d="M1301.455,123.193c-4.244,36.063-34.006,64.619-41.072,100.238a97.2,97.2,0,0,0-1.666,14.158c-1.012,20.455,3.036,41.334.946,61.824-3.89,38.425-27.244,68.453-56.9,94.476-22.43,19.635-48.464,36.907-72.411,53.621C1069.388,490.1,1012.208,543.867,987.166,613.9c-16.691,46.7-17.969,97.442-30.222,145.5s-40.155,97.219-87.318,112.544c-50.621,16.452-106.4-10.975-158.494-.137-55.9,11.639-95.548,64.47-150.709,79.393-70.083,18.961-139.928-27.63-211.871-37.341-34.546-4.666-69.707-.708-104.436-3.7a262.492,262.492,0,0,1-109.523-34.808c-11.408-6.7-22.943-14.922-28.249-27.085-4.564-10.508-3.867-22.487-2.464-33.862,5.248-42.212,18.527-88.1-2.361-125.2-19.266-34.229-65.962-58.712-59.037-97.358,4.176-23.251,26.993-37.774,48.236-48.191,43.722-21.483,90.289-38.3,129.364-67.311,27.951-20.786,52.022-49.788,62.291-82.406a109.876,109.876,0,0,0,5.077-40.41c-1.437-21.558-8.9-45.772,4.107-63.033,5.636-7.484,14.27-12.081,22.954-15.6,32.743-13.234,69.114-14,103.157-23.4a142.3,142.3,0,0,0,33.371-13.93c20.764-12.025,37.478-29.742,41.516-52.868,2.361-13.554.262-28.351,7.028-40.33,11.408-20.308,33.964-28.8,59.154-31.557,31.181-3.423,66.495,1.928,90.129,4.564l2.361.251c30.363,3.16,60.466-3.56,90.049-13.691,31.945-10.85,63.17-25.613,93.552-36.108q4.278-1.483,8.534-2.841a436.951,436.951,0,0,1,67.905-15.8,443.94,443.94,0,0,1,98.115-3.788,435.276,435.276,0,0,1,49.491,6.435q7.21,1.369,14.4,2.935c27.86,5.971,55.572,13.258,83.991,13.691h6.138c33.895-.582,68.555-9.2,100.716,1.209,14.682,4.757,28.642,14.113,34.534,28.305C1301.921,105.886,1302.447,114.705,1301.455,123.193Z" transform="translate(-246.643 1550.833)"/></clipPath><radialGradient id="c" cx="0.5" cy="0.5" r="0.704" gradientTransform="matrix(0.723, 0, 0, 0.723, 0.138, 0.138)" gradientUnits="objectBoundingBox"><stop offset="0" stop-color="#05f"/><stop offset="0.505" stop-color="#0f4df7"/><stop offset="1" stop-color="#3f35de" stop-opacity="0.902"/></radialGradient></defs><g class="c" transform="translate(0 -2668)"><g class="d" transform="translate(34.738 1117.678)"><path class="e" d="M1301.455,123.193c-4.244,36.063-34.006,64.619-41.072,100.238a97.2,97.2,0,0,0-1.666,14.158c-1.012,20.455,3.036,41.334.946,61.824-3.89,38.425-27.244,68.453-56.9,94.476-22.43,19.635-48.464,36.907-72.411,53.621C1069.388,490.1,1012.208,543.867,987.166,613.9c-16.691,46.7-17.969,97.442-30.222,145.5s-40.155,97.219-87.318,112.544c-50.621,16.452-106.4-10.975-158.494-.137-55.9,11.639-95.548,64.47-150.709,79.393-70.083,18.961-139.928-27.63-211.871-37.341-34.546-4.666-69.707-.708-104.436-3.7a262.492,262.492,0,0,1-109.523-34.808c-11.408-6.7-22.943-14.922-28.249-27.085-4.564-10.508-3.867-22.487-2.464-33.862,5.248-42.212,18.527-88.1-2.361-125.2-19.266-34.229-65.962-58.712-59.037-97.358,4.176-23.251,26.993-37.774,48.236-48.191,43.722-21.483,90.289-38.3,129.364-67.311,27.951-20.786,52.022-49.788,62.291-82.406a109.876,109.876,0,0,0,5.077-40.41c-1.437-21.558-8.9-45.772,4.107-63.033,5.636-7.484,14.27-12.081,22.954-15.6,32.743-13.234,69.114-14,103.157-23.4a142.3,142.3,0,0,0,33.371-13.93c20.764-12.025,37.478-29.742,41.516-52.868,2.361-13.554.262-28.351,7.028-40.33,11.408-20.308,33.964-28.8,59.154-31.557,31.181-3.423,66.495,1.928,90.129,4.564l2.361.251c30.363,3.16,60.466-3.56,90.049-13.691,31.945-10.85,63.17-25.613,93.552-36.108q4.278-1.483,8.534-2.841a436.951,436.951,0,0,1,67.905-15.8,443.94,443.94,0,0,1,98.115-3.788,435.276,435.276,0,0,1,49.491,6.435q7.21,1.369,14.4,2.935c27.86,5.971,55.572,13.258,83.991,13.691h6.138c33.895-.582,68.555-9.2,100.716,1.209,14.682,4.757,28.642,14.113,34.534,28.305C1301.921,105.886,1302.447,114.705,1301.455,123.193Z" transform="translate(-246.643 1550.833)"/><g class="f" transform="matrix(0.966, -0.259, 0.259, 0.966, 268.303, 1776.186)"><g transform="translate(0.001)"><path class="g" d="M193.568,109.614,183,100.517V96.152l10.568-9.1a8.956,8.956,0,0,0,2.915-8.608A96.491,96.491,0,0,0,189.517,57.7a8.938,8.938,0,0,0-7.3-5.142L168.448,51.3q-1.4-2.016-2.9-3.929l2.972-12.981a8.953,8.953,0,0,0-2.746-8.66A100.941,100.941,0,0,0,147.8,12.866a8.944,8.944,0,0,0-8.852.07l-11.85,6.879c-1.6-.55-3.238-1.065-4.941-1.536L116.679,5.429A8.945,8.945,0,0,0,108.455,0H88.218a8.941,8.941,0,0,0-8.223,5.43L74.522,18.28c-1.7.472-3.343.987-4.941,1.536L57.733,12.938a8.989,8.989,0,0,0-8.852-.07A101.289,101.289,0,0,0,30.906,25.736a8.941,8.941,0,0,0-2.75,8.66l2.972,12.972c-1,1.275-1.969,2.592-2.9,3.937L14.454,52.562a8.936,8.936,0,0,0-7.3,5.142A96.412,96.412,0,0,0,.19,78.455a8.947,8.947,0,0,0,2.915,8.6l10.568,9.1v4.365l-10.568,9.1A8.956,8.956,0,0,0,.19,118.22a96.49,96.49,0,0,0,6.966,20.743,8.938,8.938,0,0,0,7.3,5.142l13.771,1.257q1.4,2.016,2.9,3.929l-2.972,12.981a8.941,8.941,0,0,0,2.75,8.66,100.142,100.142,0,0,0,17.98,12.859,8.919,8.919,0,0,0,8.839-.07l11.855-6.87c1.6.55,3.238,1.065,4.941,1.536l5.473,12.851a8.942,8.942,0,0,0,8.223,5.43h20.236a8.941,8.941,0,0,0,8.223-5.43l5.473-12.851c1.7-.472,3.343-.987,4.941-1.536l11.847,6.879a8.966,8.966,0,0,0,9.69-.463l16.377-11.724a8.942,8.942,0,0,0,3.51-9.271L165.543,149.3c1-1.275,1.969-2.592,2.9-3.937l13.771-1.257a8.936,8.936,0,0,0,7.3-5.142,96.469,96.469,0,0,0,6.966-20.743A8.952,8.952,0,0,0,193.568,109.614Zm-25.343,1.772,9.516,8.189q-1.028,3.6-2.448,7.211l-12.763,1.161a8.955,8.955,0,0,0-6.792,4.208,65.507,65.507,0,0,1-6.591,8.914,8.936,8.936,0,0,0-2.012,7.918l2.628,11.479-6.84,4.9-10.533-6.111a8.994,8.994,0,0,0-7.914-.524,66.682,66.682,0,0,1-10.794,3.37,8.937,8.937,0,0,0-6.238,5.212l-4.894,11.479H94.125L89.232,167.31a8.9,8.9,0,0,0-6.238-5.212,66.939,66.939,0,0,1-10.794-3.37,8.923,8.923,0,0,0-7.909.524l-10.973,6.356q-3.346-2.147-6.517-4.653l2.741-11.969a8.95,8.95,0,0,0-2-7.909,65.74,65.74,0,0,1-6.6-8.922,8.958,8.958,0,0,0-6.792-4.208l-12.763-1.161q-1.421-3.614-2.448-7.211l9.516-8.189a8.957,8.957,0,0,0,3.1-6.774V92.058a8.959,8.959,0,0,0-3.1-6.775l-9.516-8.2q1.027-3.589,2.448-7.2l12.762-1.161a8.955,8.955,0,0,0,6.792-4.208A65.509,65.509,0,0,1,47.528,55.6a8.936,8.936,0,0,0,2.013-7.918L46.8,35.713q3.163-2.5,6.521-4.662l10.964,6.364a9.024,9.024,0,0,0,7.914.524,66.68,66.68,0,0,1,10.794-3.37,8.937,8.937,0,0,0,6.238-5.212l4.894-11.478h8.424l4.893,11.479a8.9,8.9,0,0,0,6.238,5.212,66.827,66.827,0,0,1,10.794,3.37,8.965,8.965,0,0,0,7.914-.524l10.965-6.364q3.352,2.161,6.521,4.662l-2.741,11.969a8.95,8.95,0,0,0,2,7.909,65.738,65.738,0,0,1,6.6,8.922,8.958,8.958,0,0,0,6.792,4.208l12.763,1.161q1.421,3.614,2.448,7.211l-9.516,8.189a8.957,8.957,0,0,0-3.1,6.774V104.61A8.96,8.96,0,0,0,168.224,111.386Z" transform="translate(-0.001 0)"/></g><g transform="translate(53.639 53.637)"><path class="g" d="M92.7,48a44.7,44.7,0,1,0,44.7,44.7A44.7,44.7,0,0,0,92.7,48Zm0,71.516A26.818,26.818,0,1,1,119.518,92.7,26.818,26.818,0,0,1,92.7,119.516Z" transform="translate(-48.002 -48)"/></g><g transform="translate(17.881 446.975)"><path class="h" d="M96.462,400H24.941A8.937,8.937,0,0,0,16,408.935v71.52a8.938,8.938,0,0,0,8.935,8.94h71.52a8.938,8.938,0,0,0,8.939-8.935v-71.52A8.937,8.937,0,0,0,96.462,400Zm-8.944,71.516H33.881V417.879H87.518Z" transform="translate(-16.002 -400)"/></g><g transform="translate(151.973 420.156)"><path class="h" d="M216.462,376h-71.52A8.937,8.937,0,0,0,136,384.935v98.339a8.938,8.938,0,0,0,8.935,8.94h71.52a8.938,8.938,0,0,0,8.939-8.935V384.939A8.937,8.937,0,0,0,216.462,376Zm-8.944,98.334H153.881V393.879h53.637Z" transform="translate(-136.002 -376)"/></g><g transform="translate(286.066 384.398)"><path class="h" d="M336.462,344h-71.52a8.937,8.937,0,0,0-8.94,8.935v134.1a8.937,8.937,0,0,0,8.935,8.94h71.52a8.938,8.938,0,0,0,8.94-8.935v-134.1A8.938,8.938,0,0,0,336.462,344Zm-8.944,134.092H273.881V361.879h53.637Z" transform="translate(-256.002 -344)"/></g><g transform="translate(420.158 303.943)"><path class="h" d="M456.462,272h-71.52a8.937,8.937,0,0,0-8.94,8.935V495.487a8.938,8.938,0,0,0,8.935,8.94h71.52a8.938,8.938,0,0,0,8.94-8.935V280.94A8.938,8.938,0,0,0,456.462,272Zm-8.944,214.548H393.881V289.879h53.637Z" transform="translate(-376.002 -272)"/></g><g transform="translate(12.974 179.131)"><path class="i" d="M305.2,178.232l-.16-.048L242.463,160.3l-4.914,17.2,43.808,12.516L11.611,367.039l9.812,14.946L286.741,207.87l-14.707,47.8,17.084,5.256,22-71.516A8.944,8.944,0,0,0,305.2,178.232Z" transform="translate(-11.611 -160.305)"/></g><g transform="translate(348.642 35.756)"><path class="j" d="M452.338,82.349a8.939,8.939,0,0,0-4.894-2.438l-38.521-5.892L391.61,37.143a8.939,8.939,0,0,0-16.185,0L358.114,74.018,319.593,79.91a8.938,8.938,0,0,0-5.051,15.076l28.137,28.835-6.657,40.83a8.937,8.937,0,0,0,13.147,9.262l34.348-18.987,34.349,18.987a8.937,8.937,0,0,0,13.147-9.262l-6.657-40.83,28.137-28.835A8.937,8.937,0,0,0,452.338,82.349Zm-43.93,32.22a8.929,8.929,0,0,0-2.423,7.682l4.422,27.116-22.562-12.475a8.933,8.933,0,0,0-8.651,0l-22.562,12.475,4.422-27.116a8.929,8.929,0,0,0-2.423-7.682L339.489,94.952l26.041-3.981a8.922,8.922,0,0,0,6.744-5.037l11.245-23.954,11.245,23.954a8.924,8.924,0,0,0,6.744,5.037l26.042,3.981Z" transform="translate(-312.002 -31.998)"/></g><g transform="translate(400.106 213.064)"><path class="k" d="M395.272,190.672a98.174,98.174,0,0,1-17.027,1.484h-.135a98.5,98.5,0,0,1-16.979-1.467l-3.073,17.618a178.158,178.158,0,0,0,20.2,1.729,115.871,115.871,0,0,0,20.127-1.763Z" transform="translate(-358.057 -190.672)"/></g><g transform="translate(436.947 1.685)"><path class="k" d="M394.055,1.508l-3.029,17.618a97.479,97.479,0,0,1,32.1,11.568l8.9-15.5A115.085,115.085,0,0,0,394.055,1.508Z" transform="translate(-391.026 -1.508)"/></g><g transform="translate(361.773 1.79)"><path class="k" d="M361.632,1.6a115.447,115.447,0,0,0-37.879,13.915l9,15.452A97.611,97.611,0,0,1,364.784,19.2Z" transform="translate(-323.753 -1.602)"/></g><g transform="translate(469.37 179.383)"><path class="k" d="M446.188,160.531A98.672,98.672,0,0,1,420.042,182.5l8.965,15.47a116.366,116.366,0,0,0,30.869-25.937Z" transform="translate(-420.042 -160.531)"/></g><g transform="translate(512.596 115.882)"><path class="k" d="M478.551,103.7l-13.929.332a98.1,98.1,0,0,1-5.9,33.637l16.805,6.111a116.24,116.24,0,0,0,6.966-40.01Z" transform="translate(-458.725 -103.703)"/></g><g transform="translate(495.276 41.205)"><path class="k" d="M456.87,36.875,443.225,48.416A97.919,97.919,0,0,1,460.41,77.9l16.779-6.181A115.62,115.62,0,0,0,456.87,36.875Z" transform="translate(-443.225 -36.875)"/></g><g transform="translate(310.842 41.712)"><path class="k" d="M298.288,37.328a115.826,115.826,0,0,0-20.114,34.981l16.814,6.077A97.924,97.924,0,0,1,312.011,48.8Z" transform="translate(-278.174 -37.328)"/></g><g transform="translate(331.244 179.523)"><path class="k" d="M310.1,160.656,296.432,172.18a116.4,116.4,0,0,0,30.917,25.893l8.939-15.487A98.527,98.527,0,0,1,310.1,160.656Z" transform="translate(-296.432 -160.656)"/></g><g transform="translate(303.949 116.415)"><path class="k" d="M289.885,104.18l-17.879.035a115.737,115.737,0,0,0,7.05,39.722l16.787-6.146A97.947,97.947,0,0,1,289.885,104.18Z" transform="translate(-272.006 -104.18)"/></g></g><g transform="translate(93.42 1828.028)"><g transform="translate(0 0)"><rect class="l" width="45.843" height="159.353" rx="2.48" transform="translate(203.455 512.168)"/><path class="m" d="M98.674,51.1h38.233a95.538,95.538,0,0,1,95.447,95.538V326.161H3.135V146.636A95.538,95.538,0,0,1,98.674,51.1Z" transform="translate(25.839 352.329)"/><rect class="n" width="55.013" height="73.351" rx="27.506" transform="translate(111.493 366.751)"/><path class="o" d="M298.81,67.492a13.753,13.753,0,0,0-18.337-5.042L224.268,94.989l-.733.55,1.281-5.134a13.845,13.845,0,0,0-10.177-16.6,13.662,13.662,0,0,0-16.688,9.719l-13.662,57.305-1.466.642L99.572,189.522,53.729,110.763a22.922,22.922,0,1,0-39.15,22.647L71.337,231.7a23.014,23.014,0,0,0,31.357,8.344h.733a24.929,24.929,0,0,0,4.215-1.926l98.292-56.755a20.354,20.354,0,0,0,3.943-3.851,35.3,35.3,0,0,0,16.963,4.309c11.05.032,33.948-13.506,36.308-14.853l14.486-8.343a12.562,12.562,0,0,0,4.584-17.141,9.171,9.171,0,0,0-1.835-2.018,12.287,12.287,0,0,0,1.835-14.67,12.47,12.47,0,0,0-7.8-5.869,12.2,12.2,0,0,0-.55-10.819,12.379,12.379,0,0,0-7.61-5.868l27.505-15.775a13.753,13.753,0,0,0,5.043-18.974Z" transform="translate(77.11 432.213)"/><path class="p" d="M57.636,186.174,108.8,156.654,59.381,71.021A29.521,29.521,0,0,0,19.038,60.2h0A29.521,29.521,0,0,0,8.217,100.541Z" transform="translate(35.06 394.666)"/><path class="q" d="M9.98,70.725v-.458h0Z" transform="translate(82.257 510.301)"/><path class="q" d="M7.194,65.315Z" transform="translate(59.281 469.5)"/><path class="q" d="M5.546,62.458Z" transform="translate(45.707 445.676)"/><path class="q" d="M5.289,61.922Z" transform="translate(43.581 441.535)"/><path class="q" d="M7.266,66.051v-.825a1.143,1.143,0,0,0,0,.825Z" transform="translate(59.208 468.763)"/><path class="q" d="M9.416,69.363Z" transform="translate(77.596 502.86)"/><path class="q" d="M7.947,66.565l.183.275.092.092Z" transform="translate(65.495 479.802)"/><path class="q" d="M8.842,67.538Z" transform="translate(69.823 487.816)"/><path class="q" d="M9.376,69.106Z" transform="translate(77.268 500.734)"/><path class="q" d="M7.551,65.871Z" transform="translate(62.224 474.078)"/><path class="q" d="M11.242,69.731Z" transform="translate(92.367 505.886)"/><path class="q" d="M10.031,70.45l.092-.092v-.092Z" transform="translate(82.665 510.301)"/><path class="q" d="M4.792,61.01Z" transform="translate(39.493 434.013)"/><path class="q" d="M10.128,58.162c-.458-.917,1.19,1.1.458,0S9.486,57.154,10.128,58.162Z" transform="translate(80.735 404.035)"/><path class="q" d="M9.406,69.344Z" transform="translate(77.515 502.697)"/><path class="q" d="M9.965,57.6h0l-.092-.183Z" transform="translate(81.357 404.414)"/><path class="q" d="M4.425,58.777Z" transform="translate(36.467 415.616)"/><path class="q" d="M4.5,60.523Z" transform="translate(37.122 430.007)"/><path class="q" d="M4.713,58.415v-.547h0a1.558,1.558,0,0,1,0,.55Z" transform="translate(38.839 408.093)"/><path class="q" d="M5.524,57.18l-.092.092-.179.183Z" transform="translate(43.253 402.452)"/><path class="q" d="M14.189,68.262Z" transform="translate(112.802 493.784)"/><path class="q" d="M9.426,69.363Z" transform="translate(77.678 502.86)"/><path class="q" d="M13.266,62.934Z" transform="translate(109.321 449.876)"/><path class="q" d="M4.961,57.779v-.55h0Z" transform="translate(40.882 402.861)"/><path class="q" d="M13.692,68.262Z" transform="translate(112.837 493.784)"/><path class="q" d="M15.431,67.22l-.092.092.183-.092.092-.092Z" transform="translate(126.411 484.464)"/><path class="q" d="M7.213,65.345Z" transform="translate(59.445 469.745)"/><path class="q" d="M13.434,63.208h0l.092.183Z" transform="translate(110.71 452.165)"/><path class="q" d="M7.938,66.754Z" transform="translate(65.413 481.356)"/><path class="q" d="M8.275,67.339Z" transform="translate(68.192 486.18)"/><path class="q" d="M8.523,67.806Z" transform="translate(70.237 490.022)"/><path class="q" d="M4.377,60.573Z" transform="translate(36.059 430.416)"/><path class="q" d="M5.662,63.216v-.55S5.571,63.309,5.662,63.216Z" transform="translate(46.324 447.668)"/><path class="q" d="M4.564,57.9h0l.092-.092Z" transform="translate(37.612 407.603)"/><path class="q" d="M5.515,62.567l.55.917Z" transform="translate(45.462 446.85)"/><path class="q" d="M9.654,69.774l.092.183h0Z" transform="translate(79.558 506.212)"/><path class="q" d="M9.664,69.791Z" transform="translate(79.64 506.376)"/><path class="q" d="M9.718,69.869Z" transform="translate(80.048 507.03)"/><path class="q" d="M9.317,69.161Z" transform="translate(76.778 501.225)"/><path class="q" d="M8.681,67.9Z" transform="translate(70.721 488.917)"/><path class="q" d="M6.675,64.528h0C6.492,63.886,6.767,64.528,6.675,64.528Z" transform="translate(54.481 460.659)"/><path class="q" d="M6.141,63.669l.275.642.275.183Z" transform="translate(50.613 455.926)"/><path class="q" d="M6.451,63.866l.183.183-.642-.917Z" transform="translate(49.386 451.511)"/><path class="q" d="M5.327,57.308Z" transform="translate(42.534 403.514)"/><path class="q" d="M7.7,56.307a3.024,3.024,0,0,0,1.375,0Z" transform="translate(63.45 395.256)"/><path class="q" d="M13.124,63.066l-.275-.458.55.825Z" transform="translate(105.887 447.177)"/><ellipse class="r" cx="121.303" cy="125.887" rx="121.303" ry="125.887" transform="translate(24.755 12.745)"/><circle class="o" cx="34.932" cy="34.932" r="34.932" transform="translate(220.142 169.439)"/><circle class="n" cx="18.154" cy="18.154" r="18.154" transform="translate(236.922 186.218)"/><circle class="o" cx="34.932" cy="34.932" r="34.932" transform="translate(0 169.439)"/><circle class="n" cx="18.154" cy="18.154" r="18.154" transform="translate(16.779 186.218)"/><path class="o" d="M113.077,10.33C52.653,10.33,3.968,73.047,3.968,150.241v92.333c0,77.293,48.685,139.916,109.108,139.916S222.46,319.867,222.46,242.573V150.241C222.46,73.047,173.5,10.33,113.077,10.33Z" transform="translate(32.707 16.353)"/><path class="s" d="M98.473,98.82A55.746,55.746,0,0,0,120.2,63.153a37.5,37.5,0,0,0,.649-5.5L10.825,38.764a36.677,36.677,0,0,0-1.281,5.5A55.838,55.838,0,0,0,18.709,85.25,57.4,57.4,0,0,1,98.017,98.82Z" transform="translate(72.336 250.693)"/><path class="t" d="M97.74,47.555,37.684,37.2A25.213,25.213,0,0,0,9.078,54.8h0L119.1,73.686h0A25.03,25.03,0,0,0,97.74,47.555Z" transform="translate(74.816 234.477)"/><path class="u" d="M46.6,76.568A56.021,56.021,0,0,0,89.14,66.482,57.4,57.4,0,0,0,9.922,52.912,56.021,56.021,0,0,0,46.6,76.57Z" transform="translate(81.766 283.032)"/><circle class="t" cx="23.197" cy="23.197" r="23.197" transform="translate(177.507 151.561)"/><circle class="s" cx="15.22" cy="15.22" r="15.22" transform="translate(197.312 158.437)"/><circle class="t" cx="23.197" cy="23.197" r="23.197" transform="translate(67.574 151.561)"/><ellipse class="s" cx="14.578" cy="15.22" rx="14.578" ry="15.22" transform="translate(88.662 161.555)"/><circle class="s" cx="22.372" cy="22.372" r="22.372" transform="translate(156.969 26.773)"/><circle class="s" cx="10.819" cy="10.819" r="10.819" transform="translate(196.12 47.402)"/><circle class="r" cx="33.558" cy="33.558" r="33.558" transform="translate(112.226 18.337)"/><circle class="r" cx="24.847" cy="24.847" r="24.847" transform="translate(79.218 24.297)"/><circle class="r" cx="19.255" cy="19.255" r="19.255" transform="translate(51.253 46.669)"/><circle class="r" cx="10.819" cy="10.819" r="10.819" transform="translate(37.317 71.883)"/><circle class="r" cx="33.558" cy="33.558" r="33.558" transform="translate(103.057)"/><circle class="r" cx="24.847" cy="24.847" r="24.847" transform="translate(70.141 5.96)"/><circle class="r" cx="33.558" cy="33.558" r="33.558" transform="translate(154.494 13.478)"/><circle class="r" cx="24.847" cy="24.847" r="24.847" transform="translate(137.256 5.96)"/><circle class="r" cx="19.255" cy="19.255" r="19.255" transform="translate(42.084 28.331)"/><circle class="r" cx="15.036" cy="15.036" r="15.036" transform="translate(28.974 51.253)"/><circle class="r" cx="15.036" cy="15.036" r="15.036" transform="translate(224.452 51.253)"/><circle class="r" cx="19.255" cy="19.255" r="19.255" transform="translate(204.005 28.331)"/><circle class="r" cx="10.819" cy="10.819" r="10.819" transform="translate(227.569 71.883)"/><circle class="r" cx="23.472" cy="23.472" r="23.472" transform="translate(191.169 38.233)"/><path class="s" d="M182.508,22.553h-20.17a41.076,41.076,0,0,0-40.986,39.793H106.13A41.076,41.076,0,0,0,65.149,22.553H44.794a40.986,40.986,0,0,0,0,81.972H64.966a41.076,41.076,0,0,0,40.343-33.649H122a41.076,41.076,0,0,0,40.343,33.741H182.51a40.986,40.986,0,1,0,0-81.972ZM64.966,95.9H44.794a32.548,32.548,0,1,1,0-65.1H64.966a32.548,32.548,0,1,1,0,65.1Zm117.544,0H162.339a32.548,32.548,0,0,1,0-65.1H182.51a32.548,32.548,0,1,1,0,65.1Z" transform="translate(31.398 117.088)"/><g transform="translate(130.747 232.429)"><circle class="n" cx="3.851" cy="3.851" r="3.851" transform="translate(0 0)"/><circle class="n" cx="3.851" cy="3.851" r="3.851" transform="translate(22.922 0)"/></g></g></g></g></g></svg>