<svg xmlns="http://www.w3.org/2000/svg" viewBox="0 0 132 132"><defs><style>.a{fill:#222;}.b{fill:#cd6699;}</style></defs><g transform="translate(-1598 -1873)"><path class="a" d="M66,0A66,66,0,1,1,0,66,66,66,0,0,1,66,0Z" transform="translate(1598 1873)"/><path class="b" d="M93.369,84.3c-1.275.482-1.224.491-1.9-.738a10.667,10.667,0,0,1-1.359-5,11.593,11.593,0,0,1,.917-4.365c.422-1.114-.127-1.507-1.092-1.608a10.514,10.514,0,0,0-2.13.007c-1.83.187-2.01.345-2.5,2.121a18.089,18.089,0,0,1-1,3.117c-1.181,2.463-2.523,4.835-3.9,7.19a6.165,6.165,0,0,1-.8,1.243,9.323,9.323,0,0,1-1.457-4.873,12.36,12.36,0,0,1,1.014-4.866.766.766,0,0,0-.424-1.085,1.839,1.839,0,0,0-.65-.213,9.914,9.914,0,0,0-3.489.242,1.213,1.213,0,0,0-.966,1.009A15.4,15.4,0,0,1,72.6,79.769q-1.957,4.392-3.9,8.791c-1.133,2.545-2.248,5.1-3.591,7.542-.094.173-.173.474-.41.414s-.156-.355-.167-.558a14.474,14.474,0,0,1,.65-4.193c.53-2.178,1.11-4.346,1.674-6.517a1.112,1.112,0,0,0-.626-1.341,1.907,1.907,0,0,0-2.288.151,14.008,14.008,0,0,0,.12-2.441c-.086-1.733-.889-2.861-2.288-3.122a4.707,4.707,0,0,0-2.9.539,14.645,14.645,0,0,0-5.278,4.37,1.912,1.912,0,0,1-.582.544q-4.05,2.206-8.091,4.427a.491.491,0,0,1-.7-.11,37.627,37.627,0,0,0-4.488-3.87,49.809,49.809,0,0,1-6.311-5.369,10.378,10.378,0,0,1-2.473-4.107A9.416,9.416,0,0,1,32,67.6a21.759,21.759,0,0,1,6.072-6.692,58.522,58.522,0,0,1,12.456-7.269A35.166,35.166,0,0,1,66.109,50.28,13.719,13.719,0,0,1,72.317,51.8a4.606,4.606,0,0,1,2.53,3.433,8.4,8.4,0,0,1-.977,5.228A20.254,20.254,0,0,1,65.6,68.732a27.5,27.5,0,0,1-9.33,3.319,17.225,17.225,0,0,1-5.5.218,8.5,8.5,0,0,1-5.5-2.726.515.515,0,0,0-.661-.194c-.29.141-.268.4-.24.645a2.235,2.235,0,0,0,.127.5,5.927,5.927,0,0,0,1.955,2.515,11.808,11.808,0,0,0,7.545,2.369,31.284,31.284,0,0,0,7.928-.911,23.99,23.99,0,0,0,14.423-9.246,15.8,15.8,0,0,0,3.395-9.951,8.707,8.707,0,0,0-2.6-6.157,14.569,14.569,0,0,0-7.327-3.64,27.25,27.25,0,0,0-9.217-.4,38.03,38.03,0,0,0-7.906,1.759A70.536,70.536,0,0,0,41.33,51.873a48.707,48.707,0,0,0-10.3,7.41,24.527,24.527,0,0,0-6.38,9.126,8.368,8.368,0,0,0-.59,4.792,13.522,13.522,0,0,0,2.932,5.678,38.017,38.017,0,0,0,7.343,6.443c2.137,1.534,4.373,2.932,6.426,4.581.582.467.578.467-.106.826-.8.417-1.608.819-2.394,1.263a35,35,0,0,0-8.734,6.435,9.89,9.89,0,0,0-2.456,4.481,42.185,42.185,0,0,0,7.2,8.209c4.67-.364,8.245-2.794,10.887-6.814a13.979,13.979,0,0,0,2.1-6.455,15.091,15.091,0,0,0-.611-5.97c-.1-.343-.494-.685-.341-.987.142-.278.572-.419.887-.6,1.274-.74,2.55-1.469,3.862-2.223a1.126,1.126,0,0,1-.1.625,18.108,18.108,0,0,0-.7,8.405,11.7,11.7,0,0,0,2.073,4.943,3.18,3.18,0,0,0,4.8-.041,22.887,22.887,0,0,0,2.346-4.284c.378-.81.724-1.634,1.085-2.453a27.345,27.345,0,0,0-.027,2.9,5.647,5.647,0,0,0,.678,2.71,1.975,1.975,0,0,0,2.732.759,6.066,6.066,0,0,0,2.406-2.5,116.525,116.525,0,0,0,6.668-13.4c.405-.983.82-1.965,1.279-3.059.07.359.117.578.16.8a20.922,20.922,0,0,0,2.262,6.254.887.887,0,0,1-.088,1.114c-1,1.365-2.1,2.648-3.184,3.946a33.961,33.961,0,0,0-2.652,3.337,1.478,1.478,0,0,0,.855,2.434,4.908,4.908,0,0,0,1.088.093,11.457,11.457,0,0,0,5.583-1.6,6.447,6.447,0,0,0,3.635-6.024,9.535,9.535,0,0,0-.875-3.615.611.611,0,0,1,.05-.681,66.894,66.894,0,0,0,4.336-7.2,6.266,6.266,0,0,1,.769-1.351c.05.173.089.282.112.393a19.478,19.478,0,0,0,2.025,5.911c.288.5.144.759-.254,1.095a15.757,15.757,0,0,0-3.436,4.082,7.692,7.692,0,0,0-1.186,3.925,2.1,2.1,0,0,0,2.753,2.139,12.251,12.251,0,0,0,4.428-2.015c2.909-2.13,3.762-4.377,2.851-7.513-.357-1.234-.35-1.213.887-1.588a18.013,18.013,0,0,1,8.213-.4q.469.077.927.177.242-1.47.378-2.976A17.5,17.5,0,0,0,93.369,84.3ZM36.176,106.383a5.863,5.863,0,0,1-2.434.331,1.873,1.873,0,0,1-1.765-1.917,6.9,6.9,0,0,1,.856-3.532,14.438,14.438,0,0,1,4.44-4.749A51.009,51.009,0,0,1,42.6,92.992c.554-.33.563-.326.69.335a9.779,9.779,0,0,1,.257,2.468A11.407,11.407,0,0,1,36.176,106.383ZM61.369,83.076a28.491,28.491,0,0,1-1.606,5.636c-.923,2.5-1.823,5.017-2.985,7.423a5.834,5.834,0,0,1-.977,1.557c-.407.427-.767.378-1.049-.144a7.425,7.425,0,0,1-.57-2.978,17.155,17.155,0,0,1,3.7-10.547,4.624,4.624,0,0,1,2.533-1.811C61.145,82.026,61.484,82.321,61.369,83.076Zm16,12.236a7.71,7.71,0,0,1-3.294,3.036c-.148.074-.338.2-.472.031s.077-.271.17-.374c1.375-1.5,2.733-3.016,3.956-4.645.019-.026.065-.029.17-.074A4.049,4.049,0,0,1,77.365,95.312Zm9.493-.058c-.2.1-.441.276-.64.122-.22-.17-.132-.47-.065-.7a12.278,12.278,0,0,1,1.313-2.988,11.053,11.053,0,0,1,1.756-2.118c.268-.257.388-.227.479.144a5.037,5.037,0,0,1,.11,1.145A4.625,4.625,0,0,1,86.858,95.254Z" transform="translate(1600.091 1861.14)"/></g></svg>