<svg xmlns="http://www.w3.org/2000/svg" xmlns:xlink="http://www.w3.org/1999/xlink" viewBox="0 0 132 132"><defs><style>.a{fill:#fff;}.b{fill:#222;}.c{clip-path:url(#a);}.d{fill:#00769d;}</style><clipPath id="a"><rect class="a" width="80" height="80"/></clipPath></defs><path class="b" d="M66,0A66,66,0,1,1,0,66,66,66,0,0,1,66,0Z"/><g class="c" transform="translate(26.128 26.332)"><path class="d" d="M36.141,31.221H31.723L43.767,65.267,50.51,46,45.282,31.221H40.621V27.976H61.262v3.244H56.429L68.473,65.267,72.8,52.895c5.679-15.851-4.655-20.789-4.655-24.326a6.405,6.405,0,0,1,6.405-6.405c.191,0,.377.01.559.027a33.469,33.469,0,0,0-50.826,5.786H36.14v3.244Z" transform="translate(-12.143 -6.531)"/><path class="d" d="M13.062,66.872A33.462,33.462,0,0,0,30.84,96.44l-15.1-42.7A33.359,33.359,0,0,0,13.062,66.872Z" transform="translate(-6.531 -26.872)"/><path class="d" d="M124.859,47.015a23.658,23.658,0,0,1-.4,9.168h.133l-.506,1.446h0a31.182,31.182,0,0,1-1.106,3.162L111.463,93.054a33.484,33.484,0,0,0,13.4-46.038Z" transform="translate(-55.731 -23.508)"/><path class="d" d="M59.356,116.158a33.625,33.625,0,0,0,20.193.144l-9.79-27.674Z" transform="translate(-29.678 -44.314)"/><path class="d" d="M68.284,11.716A40,40,0,0,0,11.716,68.284,40,40,0,1,0,68.284,11.716ZM40,77.178A37.178,37.178,0,1,1,77.178,40,37.22,37.22,0,0,1,40,77.178Z"/></g></svg>